<?xml version="1.0" encoding="utf-8"?>
<!-- Generator: Adobe Illustrator 25.2.1, SVG Export Plug-In . SVG Version: 6.00 Build 0)  -->
<svg version="1.1" id="Capa_1" xmlns="http://www.w3.org/2000/svg" xmlns:xlink="http://www.w3.org/1999/xlink" x="0px" y="0px"
	 viewBox="0 0 126.5 126.49" style="enable-background:new 0 0 126.5 126.49;" xml:space="preserve">
<style type="text/css">
	.st0{fill:#FFFFFF;stroke:#000000;stroke-miterlimit:10;}
	.st1{fill:#9285BE;}
	.st2{fill:#C6436A;}
	.st3{fill:#8A2031;}
</style>
<g>
	<path class="st0" d="M100.58,56.8c5.45-22.02,0.69-42.04-13.06-48.64C80.82,4.95,72.97,5.4,65.1,8.79l-1.84-6.85l-2.41,8.96
		C49.9,17.05,39.29,28.68,32.04,43.81c-2.02,4.22-3.67,8.47-4.94,12.68L1.93,63.24l22.37,6c-2.43,18.53,2.72,34.42,14.69,40.15
		c6.09,2.92,13.11,2.81,20.25,0.23l4.01,14.94l5.27-19.64c9.91-6.49,19.32-17.37,25.94-31.19c0.43-0.91,0.86-1.82,1.26-2.74
		l28.85-7.75L100.58,56.8z M83.15,17.27C94,22.48,98.03,37.88,94.33,55.13l-18.11-4.86l-8.97-33.44
		C72.86,14.96,78.36,14.98,83.15,17.27z M37.65,46.5c5.22-10.88,12.56-19.55,20.33-24.93l-7.7,28.69l-15.92,4.27
		C35.27,51.86,36.36,49.17,37.65,46.5z M43.36,100.27c-9.01-4.32-13.31-15.65-12.41-29.24l19.33,5.18l6.75,25.15
		C52.2,102.54,47.51,102.26,43.36,100.27z M71.54,93.71l4.69-17.49l11.59-3.11C83.4,81.65,77.69,88.71,71.54,93.71z"/>
</g>
<g>
	<path class="st1" d="M84.74,60.63c-0.07,0.28-0.14,0.57-0.22,0.85C84.6,61.2,84.68,60.91,84.74,60.63
		c0.03-0.12,0.06-0.23,0.09-0.34C84.8,60.4,84.77,60.52,84.74,60.63z M81.22,70.37c-0.88,1.83-1.84,3.56-2.86,5.2
		C79.39,73.94,80.35,72.2,81.22,70.37c0.08-0.16,0.15-0.33,0.23-0.49C81.38,70.05,81.3,70.21,81.22,70.37z M76.44,78.41
		c0.45-0.61,0.88-1.23,1.3-1.87C77.31,77.18,76.88,77.81,76.44,78.41z M72.59,83.03c1.08-1.13,2.14-2.36,3.15-3.67
		C74.72,80.67,73.67,81.89,72.59,83.03z M40.83,67.8L40.83,67.8c0.02-0.07,0.02-0.14,0.03-0.21C40.85,67.65,40.84,67.73,40.83,67.8z
		 M42.46,60.37c-0.01,0.02-0.02,0.05-0.03,0.08h0.01c0.01-0.04,0.02-0.08,0.04-0.12C42.47,60.34,42.47,60.35,42.46,60.37z
		 M43.17,58.22c0.3-0.85,0.62-1.69,0.97-2.54C43.79,56.53,43.47,57.38,43.17,58.22z M45.28,53.15c-0.2,0.43-0.4,0.85-0.58,1.27
		c0.19-0.42,0.39-0.85,0.58-1.26c0.18-0.36,0.36-0.73,0.54-1.08C45.63,52.43,45.46,52.79,45.28,53.15z M46.95,49.97
		c0.39-0.68,0.79-1.36,1.2-2.01C47.73,48.61,47.33,49.28,46.95,49.97z M49.63,84.26c0.23,0.2,0.47,0.38,0.72,0.55
		C50.1,84.64,49.86,84.46,49.63,84.26z M50.74,44.22c0.45-0.59,0.91-1.16,1.38-1.71C51.64,43.06,51.19,43.63,50.74,44.22z
		 M64.31,32.98c-0.82,0.35-1.63,0.75-2.45,1.21l-1.65,6.15c1.76-1.22,3.56-2.15,5.34-2.74L64.31,32.98z"/>
	<path class="st2" d="M85.11,59.04c-0.09,0.41-0.18,0.83-0.28,1.24c0,0-0.01,0.01,0,0.01c-0.03,0.11-0.06,0.22-0.09,0.34
		c-0.07,0.28-0.14,0.57-0.22,0.85c-0.23,0.85-0.48,1.7-0.76,2.56v0.01c-0.11,0.32-0.21,0.63-0.32,0.95
		c-0.22,0.63-0.46,1.27-0.71,1.89c-0.12,0.32-0.25,0.64-0.38,0.95c-0.14,0.32-0.27,0.64-0.41,0.95h-0.01
		c-0.16,0.36-0.32,0.73-0.49,1.09c-0.08,0.16-0.15,0.32-0.23,0.49c-0.88,1.83-1.84,3.56-2.86,5.2c-0.21,0.33-0.42,0.65-0.62,0.97
		c-0.43,0.64-0.86,1.26-1.3,1.87c-0.22,0.3-0.45,0.6-0.67,0.89c-0.02,0.02-0.03,0.04-0.03,0.05c-1.02,1.31-2.07,2.53-3.15,3.67
		c-0.19,0.19-0.36,0.38-0.55,0.55c-0.18,0.18-0.36,0.37-0.55,0.55c-0.25,0.24-0.5,0.48-0.75,0.7v-0.01
		c-1.45,1.33-2.94,2.51-4.46,3.5c-1.77,1.16-3.56,2.07-5.34,2.72c-2.22,0.8-4.43,1.19-6.54,1.11c-1.14-0.04-2.26-0.23-3.33-0.55
		c-0.04-0.01-0.07-0.02-0.11-0.03c-0.16-0.05-0.32-0.11-0.47-0.16c-0.18-0.07-0.36-0.14-0.54-0.21c-0.11-0.05-0.22-0.1-0.34-0.14
		c-0.11-0.05-0.22-0.1-0.34-0.15c-0.42-0.21-0.83-0.42-1.22-0.67c-0.39-0.24-0.77-0.51-1.13-0.79l-0.01-0.01
		c-0.12-0.1-0.24-0.2-0.35-0.3c-0.12-0.1-0.23-0.2-0.35-0.3c-0.73-0.67-1.4-1.43-1.99-2.26c-0.16-0.2-0.3-0.42-0.43-0.64
		c-0.14-0.21-0.27-0.42-0.39-0.64c-0.01-0.01-0.02-0.03-0.03-0.05c-0.26-0.45-0.5-0.92-0.73-1.4c-0.1-0.22-0.2-0.45-0.29-0.67
		c-0.02-0.03-0.03-0.06-0.04-0.09c-0.1-0.25-0.21-0.51-0.3-0.77c-0.09-0.26-0.18-0.52-0.27-0.79c-0.11-0.34-0.22-0.69-0.31-1.04
		c-0.08-0.32-0.17-0.63-0.24-0.95c-0.23-1.02-0.42-2.1-0.53-3.21v-0.03c-0.02-0.17-0.03-0.33-0.05-0.49
		c-0.03-0.28-0.05-0.55-0.06-0.83c-0.02-0.18-0.03-0.38-0.04-0.56c-0.02-0.52-0.04-1.04-0.03-1.58c0-0.38,0.01-0.75,0.02-1.13
		c0.01-0.39,0.03-0.77,0.05-1.17c0-0.05,0.01-0.11,0.01-0.17c0.02-0.32,0.04-0.63,0.07-0.96c0-0.02,0.01-0.04,0.01-0.06
		c0.01-0.08,0.02-0.17,0.03-0.26c0.03-0.23,0.05-0.46,0.08-0.7c0.01-0.19,0.04-0.39,0.07-0.6h0.01c0.01-0.07,0.02-0.14,0.03-0.21
		c0.02-0.21,0.05-0.43,0.09-0.64c0.05-0.36,0.11-0.73,0.18-1.1c0.01-0.04,0.01-0.08,0.02-0.12c0.02-0.09,0.03-0.18,0.06-0.28
		c0.05-0.3,0.11-0.6,0.17-0.9c0.01-0.02,0.01-0.03,0.01-0.05c0.09-0.41,0.18-0.82,0.28-1.24c0.09-0.39,0.19-0.77,0.29-1.15
		c0.15-0.55,0.3-1.1,0.47-1.64h0.01c0.01-0.04,0.02-0.08,0.04-0.12c0.03-0.12,0.07-0.24,0.11-0.36c0.05-0.16,0.1-0.32,0.15-0.48
		c0.14-0.42,0.28-0.84,0.43-1.26c0.3-0.85,0.62-1.69,0.97-2.54c0.18-0.42,0.36-0.85,0.55-1.27c0.19-0.42,0.39-0.85,0.58-1.26
		c0.18-0.36,0.36-0.73,0.54-1.08c0.18-0.36,0.36-0.71,0.55-1.06c0.18-0.36,0.38-0.7,0.58-1.05c0.39-0.68,0.79-1.36,1.2-2.01
		c0.41-0.65,0.84-1.29,1.27-1.92c0.44-0.62,0.88-1.23,1.33-1.82s0.91-1.16,1.38-1.71c0-0.01,0-0.01,0-0.01
		c0.71-0.83,1.42-1.62,2.16-2.36c0.49-0.5,0.99-0.98,1.49-1.44c1.98-1.82,4.03-3.33,6.1-4.5l-1.65,6.15l-0.01,0.01
		c-1.6,1.1-3.17,2.45-4.66,4.01c-0.18,0.18-0.35,0.38-0.53,0.57c-0.35,0.38-0.69,0.78-1.03,1.18c-0.46,0.54-0.9,1.11-1.33,1.68
		c-0.16,0.21-0.31,0.42-0.46,0.63s-0.3,0.42-0.45,0.64s-0.3,0.43-0.44,0.65c-0.72,1.11-1.41,2.27-2.05,3.49
		c-0.12,0.24-0.25,0.48-0.38,0.73c0,0.01,0,0.01,0,0.01c-0.12,0.24-0.24,0.49-0.36,0.74c-0.34,0.69-0.65,1.39-0.93,2.08
		c-0.15,0.35-0.29,0.69-0.42,1.04c-0.14,0.35-0.27,0.7-0.39,1.04c-0.05,0.15-0.11,0.31-0.16,0.46H46.6
		c-0.07,0.19-0.13,0.38-0.19,0.57c-0.1,0.3-0.19,0.6-0.28,0.9c-0.07,0.24-0.15,0.49-0.21,0.74c-0.05,0.17-0.09,0.33-0.14,0.49
		c-0.23,0.88-0.43,1.75-0.59,2.61c-0.05,0.22-0.09,0.43-0.12,0.64c-0.15,0.83-0.26,1.65-0.34,2.46c-0.04,0.36-0.07,0.72-0.09,1.08
		c-0.01,0.12-0.01,0.23-0.02,0.35c-0.02,0.23-0.02,0.45-0.03,0.67c-0.01,0.1-0.01,0.2-0.01,0.29c-0.01,0.24-0.01,0.48-0.01,0.71
		v0.02c0,0.28,0.01,0.56,0.02,0.84c0.03,1.13,0.14,2.22,0.3,3.27c0.02,0.11,0.03,0.2,0.06,0.3c0.02,0.11,0.03,0.22,0.05,0.33
		c0.02,0.12,0.05,0.24,0.08,0.36c0.15,0.7,0.32,1.37,0.53,2.02c0.07,0.22,0.15,0.44,0.23,0.65c0.08,0.21,0.16,0.42,0.25,0.63
		c0.08,0.2,0.16,0.4,0.26,0.59c0.01,0.01,0.01,0.03,0.01,0.04c0.1,0.2,0.19,0.39,0.28,0.58c0,0,0,0,0.01,0.01
		c0.1,0.19,0.2,0.38,0.31,0.57c0.05,0.1,0.1,0.18,0.16,0.27c0.05,0.09,0.11,0.18,0.17,0.27c0.11,0.18,0.22,0.36,0.35,0.52
		c0.11,0.17,0.24,0.34,0.37,0.5c0.12,0.16,0.26,0.32,0.4,0.47c-0.01,0.01,0,0.01,0.01,0.01c0.06,0.08,0.13,0.15,0.21,0.23
		c0.06,0.07,0.13,0.15,0.21,0.22c0.14,0.15,0.28,0.29,0.44,0.42c0.11,0.11,0.23,0.21,0.35,0.3c0.23,0.2,0.47,0.38,0.72,0.55
		c0.12,0.09,0.24,0.17,0.38,0.25c0.08,0.06,0.17,0.11,0.26,0.16c0.08,0.05,0.17,0.11,0.26,0.15c0.09,0.06,0.18,0.11,0.27,0.14
		c0.09,0.05,0.19,0.09,0.28,0.14c2.39,1.14,5.09,1.3,7.87,0.62s5.64-2.2,8.35-4.4c1-0.82,1.98-1.72,2.93-2.71
		c0.76-0.79,1.49-1.64,2.2-2.54c0.24-0.3,0.47-0.61,0.7-0.92c0.19-0.26,0.38-0.52,0.57-0.79c0.57-0.79,1.11-1.62,1.62-2.49
		c0.14-0.22,0.27-0.44,0.4-0.67c0.01-0.01,0.01-0.02,0.02-0.04c0.14-0.23,0.27-0.47,0.4-0.71c0.18-0.33,0.36-0.67,0.54-1.01
		c0.08-0.15,0.15-0.29,0.23-0.44c0.13-0.25,0.25-0.5,0.37-0.75l0,0c0.83-1.73,1.52-3.46,2.09-5.18c0.22-0.67,0.42-1.34,0.59-2
		c0.18-0.66,0.34-1.32,0.47-1.97h0.01c0.01-0.05,0.02-0.09,0.03-0.12c0.9-4.25,0.97-8.3,0.29-11.77c-0.93-4.6-3.21-8.2-6.76-9.9
		c-2.76-1.32-5.92-1.33-9.15-0.26l-1.24-4.63c2.65-1.14,5.29-1.7,7.79-1.61c1.79,0.07,3.51,0.48,5.12,1.24
		c3.07,1.48,5.37,4.12,6.85,7.55c0.07,0.16,0.14,0.33,0.2,0.5c0.13,0.33,0.26,0.67,0.38,1.01v0.01C84.79,42,84.9,42.35,85,42.7
		c0.05,0.18,0.1,0.37,0.15,0.55c0.23,0.91,0.43,1.87,0.57,2.85C86.26,50.04,86.08,54.44,85.11,59.04z"/>
	<path class="st1" d="M42.48,60.33c-0.02,0.04-0.03,0.08-0.04,0.12c0.01-0.03,0.02-0.06,0.02-0.08
		C42.47,60.35,42.47,60.34,42.48,60.33z"/>
	<path class="st3" d="M42.44,60.45c-0.17,0.55-0.32,1.1-0.47,1.64c-0.1,0.39-0.2,0.77-0.29,1.15c-0.1,0.42-0.19,0.83-0.28,1.24
		c0,0.02,0,0.03-0.01,0.05c-0.07,0.3-0.12,0.61-0.17,0.9c-0.03,0.1-0.04,0.19-0.06,0.28c-0.01,0.04-0.01,0.08-0.02,0.12
		c-0.07,0.37-0.13,0.74-0.18,1.1c-0.04,0.21-0.07,0.43-0.09,0.64c-0.01,0.07-0.02,0.15-0.03,0.21h-0.01l-12.89-3.46L42.44,60.45z"/>
	<path class="st3" d="M81.15,59.67c-0.14,0.65-0.29,1.32-0.47,1.97c-0.17,0.66-0.38,1.33-0.59,2c-0.57,1.72-1.26,3.46-2.09,5.18l0,0
		c-0.12,0.25-0.24,0.5-0.37,0.75c-0.08,0.15-0.15,0.29-0.23,0.44l-6.67,1.79l-2.7,10.07l-1.73,6.45l-3.03,11.32l-2.31-8.6
		l-1.28-4.76L55.79,71.8l-11.12-2.98c0.03-0.36,0.06-0.71,0.09-1.08c0.08-0.81,0.19-1.63,0.34-2.46c0.03-0.21,0.07-0.42,0.12-0.64
		c0.16-0.86,0.36-1.73,0.59-2.61c0.05-0.17,0.09-0.33,0.14-0.49c0.07-0.24,0.14-0.49,0.21-0.74c0.09-0.3,0.18-0.6,0.28-0.9
		c0.06-0.19,0.12-0.38,0.19-0.57h0.01l9.15-2.46l4.43-16.51l0.01-0.01l1.65-6.15l1.39-5.17l1.06,3.95l1.24,4.63l5.17,19.25
		L81.15,59.67z"/>
	<path class="st3" d="M98.56,64.34L81.95,68.8c0.14-0.32,0.28-0.64,0.41-0.95c0.13-0.32,0.26-0.63,0.38-0.95
		c0.25-0.63,0.49-1.26,0.71-1.89c0.11-0.32,0.21-0.63,0.32-0.95v-0.01c0.28-0.86,0.53-1.71,0.76-2.56c0.08-0.29,0.15-0.57,0.22-0.85
		h0.01L98.56,64.34z"/>
	<path class="st1" d="M51.07,91.6c1.08,0.33,2.19,0.52,3.33,0.56v-0.01C53.26,92.11,52.14,91.93,51.07,91.6z M49.28,90.91
		c-0.42-0.21-0.83-0.42-1.22-0.67c0.39,0.25,0.8,0.48,1.22,0.68c0.11,0.05,0.22,0.1,0.34,0.14C49.5,91.01,49.39,90.96,49.28,90.91z
		 M48.52,54.7c-0.34,0.69-0.65,1.39-0.93,2.08C47.88,56.09,48.19,55.4,48.52,54.7c0.12-0.25,0.24-0.5,0.36-0.74
		C48.76,54.2,48.64,54.45,48.52,54.7z M46.93,89.44c0.36,0.29,0.74,0.55,1.13,0.79C47.67,89.99,47.29,89.73,46.93,89.44z
		 M44.23,86.58c0.59,0.84,1.26,1.6,1.99,2.26C45.49,88.17,44.82,87.41,44.23,86.58z M42.65,83.84c0.22,0.48,0.47,0.95,0.73,1.4
		C43.12,84.8,42.88,84.33,42.65,83.84z"/>
</g>
</svg>
