<?xml version="1.0" encoding="utf-8"?>
<!-- Generator: Adobe Illustrator 25.2.1, SVG Export Plug-In . SVG Version: 6.00 Build 0)  -->
<svg version="1.1" id="Capa_1" xmlns="http://www.w3.org/2000/svg" xmlns:xlink="http://www.w3.org/1999/xlink" x="0px" y="0px"
	 viewBox="0 0 56.08 56.08" style="enable-background:new 0 0 56.08 56.08;" xml:space="preserve">
<style type="text/css">
	.st0{stroke:#FFFFFF;stroke-miterlimit:10;}
</style>
<g>
	<path class="st0" d="M9.75,7.45c1.44-1.2,2.97-2.27,4.54-3.29c2.81-1.49,5.74-2.66,8.89-3.2c1.61-0.27,3.23-0.41,4.86-0.46
		c4.35,0.06,8.49,1.01,12.38,2.98c0.45,0.23,0.9,0.46,1.36,0.68c0,0-0.01-0.01-0.01-0.01c0.06,0.04,0.12,0.08,0.18,0.12
		c1.49,1,2.98,1.99,4.33,3.19c2.23,1.99,4.05,4.31,5.63,6.83c1.32,2.54,2.43,5.15,3.02,7.97c0.4,1.91,0.58,3.84,0.64,5.78
		c-0.08,4.89-1.31,9.47-3.67,13.75c-1.04,1.63-2.17,3.19-3.4,4.67c-0.68,0.68-1.37,1.37-2.05,2.05c-1.49,1.23-3.04,2.36-4.68,3.39
		c-2.83,1.51-5.79,2.69-8.97,3.22c-1.58,0.26-3.17,0.4-4.77,0.46c-4.97-0.05-9.6-1.36-13.92-3.77c-1.07-0.75-2.17-1.47-3.2-2.27
		C8.17,47.4,6,44.74,4.16,41.79c-1.49-2.81-2.66-5.74-3.21-8.89c-0.28-1.61-0.41-3.23-0.45-4.86c0.07-4.89,1.3-9.47,3.66-13.75
		c0,0,0,0,0,0c0.04-0.06,0.09-0.12,0.13-0.19C5.22,12.6,6.29,11.19,7.4,9.8C8.19,9.02,8.97,8.24,9.75,7.45z M13.95,47.81
		c0.05,0.04,0.11,0.09,0.16,0.13c0.05,0.04,0.1,0.07,0.15,0.11c0.34,0.26,0.66,0.55,1.09,0.67c1.73,1.18,3.61,2.02,5.63,2.55
		c2.53,0.86,5.14,1.19,7.8,1.04c2.04,0.02,4.02-0.3,5.96-0.92c2.02-0.55,3.95-1.32,5.7-2.5c0.69-0.28,1.28-0.71,1.84-1.2
		c2.3-1.58,4.22-3.55,5.75-5.88c0.37-0.41,0.67-0.85,0.86-1.37c1.17-1.69,1.89-3.58,2.47-5.53c0.63-2.05,0.99-4.14,0.95-6.3
		c0.13-2.62-0.2-5.17-1.05-7.66c-0.54-2.01-1.37-3.89-2.55-5.61c-0.14-0.42-0.39-0.77-0.69-1.08c-1.64-2.52-3.74-4.57-6.22-6.24
		c-0.34-0.26-0.66-0.56-1.09-0.67c-1.72-1.18-3.59-2.01-5.6-2.55c-2.6-0.88-5.27-1.22-8-1.04c-2.11-0.02-4.15,0.36-6.16,1.01
		c-1.94,0.56-3.78,1.34-5.46,2.47c-0.47,0.18-0.87,0.47-1.24,0.78c-2.49,1.67-4.58,3.73-6.22,6.23c-0.33,0.37-0.61,0.77-0.79,1.24
		c-1.17,1.74-1.96,3.66-2.53,5.67c-0.6,1.94-0.96,3.92-0.94,5.96c-0.18,2.74,0.16,5.41,1.04,8c0.54,2.01,1.36,3.89,2.55,5.6
		c0.12,0.42,0.39,0.75,0.67,1.06C9.6,44.2,11.57,46.21,13.95,47.81z"/>
</g>
<path d="M17.19,16.02c0.59,0,1.18,0,1.77,0c0.61,0,1.23,0,1.84,0c0.59,0,1.18,0,1.77,0c0.61,0,1.23,0,1.84,0c0.59,0,1.18,0,1.77,0
	c0.61,0,1.23,0,1.84,0c0.61,0,1.22,0,1.84,0c0.59,0,1.19,0,1.78,0c0.61,0,1.22,0,1.84,0c0.59,0,1.19,0,1.78,0c0.61,0,1.22,0,1.84,0
	c0.59,0,1.19,0,1.78,0c0.61,0,1.22,0,1.84,0c0.65-0.01,1.26,0.15,1.84,0.45c0.33,0.19,0.61,0.45,0.89,0.7
	c0.38,0.45,0.63,0.97,0.82,1.53c0.01,0.06,0.01,0.13,0.02,0.19c0.11,0.63,0.02,1.27,0.07,1.9c0,0.59,0,1.18,0,1.77
	c0,0.61,0,1.23,0,1.84c0,0.65,0,1.31,0,1.96c0,0.51,0,1.02,0,1.53c0,0.66,0,1.32,0,1.98c0,0.59,0,1.17,0,1.76c0,0.62,0,1.24,0,1.86
	c0,0.59,0,1.17,0,1.76c-0.01,0.59-0.02,1.18-0.03,1.77c-0.06,0.08-0.06,0.17-0.05,0.26c-0.17,0.58-0.44,1.12-0.83,1.59
	c-0.28,0.26-0.57,0.51-0.89,0.71c-0.62,0.32-1.27,0.46-1.96,0.45c-0.52,0-1.04,0-1.56,0c-0.64,0-1.28,0-1.92,0
	c-0.61,0-1.23,0-1.84,0c-0.59,0-1.18,0-1.77,0c-0.61,0-1.23,0-1.84,0c-0.6,0-1.2,0-1.8,0c-0.56,0-1.13,0-1.69,0
	c-0.63,0-1.27,0-1.9,0c-0.61,0-1.23,0-1.84,0c-0.61,0-1.22,0-1.84,0c-0.59,0-1.19,0-1.78,0c-0.61,0-1.22,0-1.84,0
	c-0.59,0-1.19,0-1.78,0c-0.63,0-1.27,0-1.9,0c-0.6,0.01-1.17-0.16-1.71-0.4c-0.31-0.21-0.62-0.43-0.89-0.69
	c-0.02-0.02-0.04-0.04-0.06-0.06c0,0,0,0,0,0c-0.38-0.45-0.63-0.97-0.82-1.53c-0.01-0.06-0.01-0.13-0.02-0.19
	c-0.1-0.63-0.02-1.27-0.06-1.9c0-0.55,0-1.1,0-1.65c0-0.66,0-1.31,0-1.97c0-0.59,0-1.18,0-1.77c0-0.64,0-1.27,0-1.91
	c0-0.57,0-1.14,0-1.71c0-0.64,0-1.27,0-1.91c0-0.59,0-1.18,0-1.77c0-0.59,0-1.19,0-1.78c0.01-0.61,0.03-1.22,0.04-1.83
	c0.02-0.1,0.04-0.21,0.07-0.31c0.16-0.51,0.41-0.98,0.74-1.4c0.31-0.32,0.65-0.59,1.02-0.82c0.56-0.25,1.14-0.41,1.77-0.4
	C15.96,16.02,16.58,16.02,17.19,16.02z M38.26,33.46l0.02,0.01c0.17,0.16,0.34,0.34,0.54,0.46c0.22,0.2,0.43,0.4,0.65,0.59
	c0.97,0.85,1.95,1.7,2.93,2.55c0.09,0.08,0.23,0.27,0.27-0.04c0.16-0.57,0.06-1.14,0.07-1.72c0-0.63,0-1.27,0-1.9
	c0-0.57,0-1.14,0-1.72c0-0.63,0-1.27,0-1.9c0-0.57,0-1.14,0-1.72c0-0.63,0-1.27,0-1.9c0-0.57,0-1.14,0-1.72c0-0.63,0-1.27,0-1.9
	c0-0.61,0-1.23,0-1.84c0-0.44,0-0.89,0-1.33c0.02-0.07,0.02-0.15-0.04-0.21c0.01-0.02,0.01-0.03-0.01-0.04
	c0.02-0.12-0.04-0.22-0.1-0.33c-0.17,0.15-0.33,0.29-0.49,0.43c-1.1,0.96-2.19,1.92-3.29,2.88c-0.17,0.1-0.3,0.23-0.44,0.38
	c-0.42,0.37-0.84,0.73-1.26,1.1c-0.3,0.25-0.59,0.5-0.89,0.76c-0.3,0.26-0.59,0.52-0.89,0.78c-0.4,0.35-0.81,0.7-1.21,1.05
	c-0.23,0.17-0.45,0.35-0.64,0.56c-0.42,0.35-0.83,0.7-1.25,1.05c-0.28,0.24-0.28,0.25,0.05,0.47c0.4,0.39,0.83,0.75,1.26,1.11
	c0.18,0.18,0.36,0.36,0.58,0.49c0.36,0.36,0.75,0.68,1.14,1c0.3,0.26,0.59,0.51,0.89,0.77c0.28,0.27,0.57,0.53,0.88,0.76
	c0.36,0.36,0.76,0.69,1.16,1.01C38.22,33.43,38.24,33.44,38.26,33.46z M41.42,17.68c0.01,0,0.02-0.01,0.03-0.01c0,0,0-0.02,0-0.02
	c-0.07-0.04-0.13-0.02-0.2-0.01c-0.19,0-0.38,0-0.57,0c-0.59,0-1.19,0-1.78,0c-0.61,0-1.22,0-1.84,0c-0.59,0-1.19,0-1.78,0
	c-0.59,0-1.18,0-1.77,0c-0.61,0-1.23,0-1.84,0c-0.59,0-1.18,0-1.77,0c-0.61,0-1.23,0-1.84,0c-0.61,0-1.22,0-1.84,0
	c-0.59,0-1.19,0-1.78,0c-0.63,0-1.27,0-1.9,0c-0.57,0-1.14,0-1.72,0c-0.61,0-1.22,0-1.84,0c-0.59,0-1.19,0-1.78,0
	c-0.65,0-1.31,0-1.96,0c-0.19,0-0.39,0-0.62,0c0.05,0.06,0.08,0.09,0.1,0.11c0.21,0.18,0.43,0.37,0.65,0.55
	c0.23,0.2,0.46,0.4,0.69,0.59c0.02,0.02,0.05,0.04,0.07,0.06l0,0c0.36,0.31,0.72,0.63,1.08,0.94l0.01,0.01
	c0.02,0.02,0.03,0.03,0.05,0.05c0.33,0.28,0.66,0.57,1,0.85c0.22,0.23,0.46,0.44,0.72,0.63c0.46,0.4,0.93,0.8,1.39,1.21
	c0.13,0.15,0.28,0.28,0.45,0.39c0.06,0.06,0.11,0.12,0.18,0.18c1.15,1,2.29,2,3.44,3c0.04,0.08,0.1,0.13,0.18,0.14
	c0.49,0.46,0.99,0.9,1.52,1.32c0.14,0.19,0.32,0.32,0.51,0.45c0.35,0.3,0.63,0.71,1.12,0.82c0.35,0.14,0.67,0.03,0.94-0.16
	c0.32-0.23,0.59-0.52,0.88-0.79c0.12-0.06,0.22-0.15,0.3-0.26c0.58-0.46,1.14-0.94,1.67-1.45c0.03-0.03,0.07-0.06,0.1-0.09
	c1.25-1.05,2.48-2.12,3.7-3.21c0.12-0.11,0.24-0.21,0.37-0.32c0.5-0.41,0.99-0.82,1.45-1.27c0.25-0.16,0.46-0.36,0.66-0.57
	c0.37-0.28,0.71-0.59,1.05-0.9c0.37-0.29,0.73-0.61,1.07-0.94c0.29-0.2,0.54-0.44,0.77-0.69C41,18.12,41.2,17.89,41.42,17.68z
	 M13.34,36.72c-0.01,0.05,0,0.1,0.04,0.14c-0.01,0.11,0.03,0.2,0.07,0.3c0.04,0.1,0.08,0.05,0.12,0c0.22-0.19,0.45-0.37,0.67-0.56
	c0.99-0.86,1.97-1.73,2.96-2.59c0.21-0.14,0.4-0.31,0.57-0.49c0.42-0.33,0.82-0.67,1.2-1.04c0.34-0.25,0.64-0.53,0.94-0.82
	c0.28-0.24,0.56-0.48,0.83-0.72c0.43-0.35,0.86-0.71,1.26-1.1c0.24-0.16,0.45-0.35,0.65-0.56c0.42-0.36,0.85-0.72,1.26-1.08
	c0.05-0.05,0.23-0.09,0.07-0.22c-0.02-0.02-0.04-0.04-0.07-0.06c-0.02-0.02-0.04-0.04-0.07-0.05c-0.38-0.37-0.78-0.71-1.2-1.05
	c-0.22-0.22-0.45-0.43-0.71-0.61c-0.36-0.36-0.75-0.68-1.14-1c-0.3-0.26-0.6-0.51-0.9-0.77c-0.31-0.27-0.63-0.55-0.94-0.82
	c-0.38-0.36-0.77-0.71-1.19-1.03c-0.17-0.2-0.37-0.36-0.58-0.51c-0.59-0.52-1.18-1.04-1.78-1.56c-0.59-0.52-1.19-1.04-1.79-1.55
	c-0.03-0.03-0.13-0.28-0.18,0c-0.02,0.05-0.05,0.09-0.06,0.14c-0.11,0.57-0.05,1.14-0.05,1.71c0,0.59,0,1.18,0,1.77
	c0,0.59,0,1.19,0,1.78c0,0.65,0,1.31,0,1.96c0,0.53,0,1.06,0,1.59c0,0.65,0,1.31,0,1.96c0,0.61,0,1.23,0,1.84c0,0.59,0,1.18,0,1.77
	c0,0.59,0,1.19,0,1.78C13.34,35.74,13.34,36.23,13.34,36.72z M40.74,37.77c-0.26-0.22-0.52-0.45-0.78-0.67
	c-0.3-0.3-0.61-0.57-0.95-0.82c-0.38-0.36-0.77-0.71-1.18-1.03c-0.22-0.23-0.46-0.44-0.72-0.63c-0.44-0.38-0.88-0.76-1.32-1.15
	c-0.15-0.17-0.33-0.32-0.52-0.45c-1.19-1.03-2.37-2.07-3.56-3.1c-0.27-0.25-0.54-0.49-0.81-0.74c-0.08-0.08-0.16-0.11-0.26-0.01
	c-0.3,0.27-0.63,0.51-0.9,0.8c-0.51,0.37-1.07,0.58-1.71,0.59c-0.64,0-1.2-0.23-1.72-0.59c-0.04-0.04-0.09-0.08-0.13-0.12
	c-0.17-0.16-0.35-0.33-0.52-0.49c-0.33-0.3-0.34-0.3-0.68,0c-0.18,0.15-0.36,0.32-0.53,0.47c-0.01,0.01-0.03,0.03-0.04,0.04
	c-0.11,0.09-0.21,0.17-0.32,0.26c-1.05,0.92-2.11,1.85-3.16,2.77c-0.02,0.02-0.04,0.04-0.06,0.05c-0.02,0.02-0.04,0.04-0.06,0.06
	c-0.15,0.08-0.27,0.2-0.38,0.32c-0.46,0.37-0.9,0.75-1.33,1.16c-0.33,0.25-0.64,0.52-0.93,0.81c-0.37,0.27-0.7,0.58-1.04,0.89
	c-0.35,0.27-0.69,0.56-1.01,0.88c-0.5,0.42-1,0.85-1.56,1.31c0.93,0,1.78,0,2.63,0c0.4,0,0.8,0,1.2,0c0.04,0,0.08,0,0.13,0
	c0.15,0,0.3,0,0.44,0c0.61,0,1.23,0,1.84,0c0.59,0,1.18,0,1.77,0c0.61,0,1.23,0,1.84,0c0.59,0,1.18,0,1.77,0c0.64,0,1.27,0,1.91,0
	c0.57,0,1.14,0,1.71,0c0.61,0,1.23,0,1.84,0c0.61,0,1.22,0,1.84,0c0.59,0,1.19,0,1.78,0c0.61,0,1.22,0,1.84,0c0.59,0,1.19,0,1.78,0
	c0.61,0,1.22,0,1.84,0c0.23,0,0.47,0,0.78,0C41.21,38.17,40.97,37.97,40.74,37.77z"/>
</svg>
