<?xml version="1.0" encoding="utf-8"?>
<!-- Generator: Adobe Illustrator 25.2.1, SVG Export Plug-In . SVG Version: 6.00 Build 0)  -->
<svg version="1.1" id="Capa_1" xmlns="http://www.w3.org/2000/svg" xmlns:xlink="http://www.w3.org/1999/xlink" x="0px" y="0px"
	 viewBox="0 0 56.08 56.08" style="enable-background:new 0 0 56.08 56.08;" xml:space="preserve">
<style type="text/css">
	.st0{fill:none;stroke:#090909;stroke-width:2;stroke-miterlimit:10;}
	.st1{stroke:#FFFFFF;stroke-miterlimit:10;}
</style>
<path class="st0" d="M14.82,20.38c-0.02-2.64,2.99-5.15,5.78-4.57c0.65,0.14,0.99,0.59,1.18,1.16c0.59,1.73,1.12,3.49,1.71,5.22
	c0.36,1.05-0.41,1.53-1.01,2.02c-0.71,0.58-0.78,0.99-0.16,1.74c2.47,3.02,5.37,5.53,8.67,7.61c0.79,0.5,1.21,0.41,1.51-0.41
	c0.48-1.3,1.33-1.57,2.62-1.2c1.39,0.39,2.83,0.59,4.24,0.89c0.99,0.21,1.42,0.82,1.49,1.84c0.26,4.04-1.87,6.09-5.91,5.61
	c-1.74-0.21-3.4-0.69-4.95-1.52c-5.56-2.97-10.14-7.01-13.46-12.4C15.46,24.62,14.8,22.71,14.82,20.38z"/>
<g>
	<path class="st1" d="M9.75,7.45c1.44-1.2,2.97-2.27,4.54-3.29c2.81-1.49,5.74-2.66,8.89-3.2c1.61-0.27,3.23-0.41,4.86-0.46
		c4.35,0.06,8.49,1.01,12.38,2.98c0.45,0.23,0.9,0.46,1.36,0.68c0,0-0.01-0.01-0.01-0.01c0.06,0.04,0.12,0.08,0.18,0.12
		c1.49,1,2.98,1.99,4.33,3.19c2.23,1.99,4.05,4.31,5.63,6.83c1.32,2.54,2.43,5.15,3.02,7.97c0.4,1.91,0.58,3.84,0.64,5.78
		c-0.08,4.89-1.31,9.47-3.67,13.75c-1.04,1.63-2.17,3.19-3.4,4.67c-0.68,0.68-1.37,1.37-2.05,2.05c-1.49,1.23-3.04,2.36-4.68,3.39
		c-2.83,1.51-5.79,2.69-8.97,3.22c-1.58,0.26-3.17,0.4-4.77,0.46c-4.97-0.05-9.6-1.36-13.92-3.77c-1.07-0.75-2.17-1.47-3.2-2.27
		C8.17,47.4,6,44.74,4.16,41.79c-1.49-2.81-2.66-5.74-3.21-8.89c-0.28-1.61-0.41-3.23-0.45-4.86c0.07-4.89,1.3-9.47,3.66-13.75
		c0,0,0,0,0,0c0.04-0.06,0.09-0.12,0.13-0.19C5.22,12.6,6.29,11.19,7.4,9.8C8.19,9.02,8.97,8.24,9.75,7.45z M13.95,47.81
		c0.05,0.04,0.11,0.09,0.16,0.13c0.05,0.04,0.1,0.07,0.15,0.11c0.34,0.26,0.66,0.55,1.09,0.67c1.73,1.18,3.61,2.02,5.63,2.55
		c2.53,0.86,5.14,1.19,7.8,1.04c2.04,0.02,4.02-0.3,5.96-0.92c2.02-0.55,3.95-1.32,5.7-2.5c0.69-0.28,1.28-0.71,1.84-1.2
		c2.3-1.58,4.22-3.55,5.75-5.88c0.37-0.41,0.67-0.85,0.86-1.37c1.17-1.69,1.89-3.58,2.47-5.53c0.63-2.05,0.99-4.14,0.95-6.3
		c0.13-2.62-0.2-5.17-1.05-7.66c-0.54-2.01-1.37-3.89-2.55-5.61c-0.14-0.42-0.39-0.77-0.69-1.08c-1.64-2.52-3.74-4.57-6.22-6.24
		c-0.34-0.26-0.66-0.56-1.09-0.67c-1.72-1.18-3.59-2.01-5.6-2.55c-2.6-0.88-5.27-1.22-8-1.04c-2.11-0.02-4.15,0.36-6.16,1.01
		c-1.94,0.56-3.78,1.34-5.46,2.47c-0.47,0.18-0.87,0.47-1.24,0.78c-2.49,1.67-4.58,3.73-6.22,6.23c-0.33,0.37-0.61,0.77-0.79,1.24
		c-1.17,1.74-1.96,3.66-2.53,5.67c-0.6,1.94-0.96,3.92-0.94,5.96c-0.18,2.74,0.16,5.41,1.04,8c0.54,2.01,1.36,3.89,2.55,5.6
		c0.12,0.42,0.39,0.75,0.67,1.06C9.6,44.2,11.57,46.21,13.95,47.81z"/>
</g>
</svg>
