<?xml version="1.0" encoding="utf-8"?>
<!-- Generator: Adobe Illustrator 25.2.1, SVG Export Plug-In . SVG Version: 6.00 Build 0)  -->
<svg version="1.1" id="Capa_1" xmlns="http://www.w3.org/2000/svg" xmlns:xlink="http://www.w3.org/1999/xlink" x="0px" y="0px"
	 viewBox="0 0 24.18 24.18" style="enable-background:new 0 0 24.18 24.18;" xml:space="preserve">
<style type="text/css">
	.st0{fill:url(#SVGID_1_);}
	.st1{fill:#FFFFFF;}
	.st2{fill:url(#SVGID_2_);}
</style>
<g>
	<radialGradient id="SVGID_1_" cx="12.0913" cy="12.0912" r="12.0913" gradientUnits="userSpaceOnUse">
		<stop  offset="0.0178" style="stop-color:#C6436A"/>
		<stop  offset="0.6779" style="stop-color:#8A1E35"/>
		<stop  offset="1" style="stop-color:#751325"/>
	</radialGradient>
	<path class="st0" d="M7.58,0h9.02c4.17,0,7.58,3.41,7.58,7.58v9.02c0,4.17-3.41,7.58-7.58,7.58H7.58C3.41,24.18,0,20.77,0,16.6
		V7.58C0,3.41,3.41,0,7.58,0z"/>
</g>
<g>
	<g>
		<path class="st1" d="M10.68,11.62c0.4-0.19,0.7-0.44,0.91-0.73c0.2-0.3,0.3-0.67,0.3-1.12c0-0.41-0.07-0.76-0.2-1.04
			c-0.14-0.28-0.33-0.51-0.58-0.68c-0.25-0.17-0.55-0.29-0.9-0.37C9.86,7.6,9.48,7.56,9.05,7.56h-4.2v8.9h4.31
			c0.4,0,0.79-0.05,1.16-0.15c0.38-0.1,0.72-0.25,1.01-0.46c0.29-0.21,0.53-0.48,0.7-0.81c0.17-0.33,0.26-0.72,0.26-1.17
			c0-0.56-0.13-1.03-0.4-1.43C11.64,12.05,11.23,11.77,10.68,11.62z M6.82,9.07h1.83c0.17,0,0.34,0.01,0.5,0.04
			C9.32,9.15,9.46,9.2,9.59,9.27c0.13,0.07,0.23,0.18,0.3,0.31C9.96,9.72,10,9.89,10,10.09c0,0.37-0.11,0.64-0.33,0.81
			c-0.23,0.17-0.52,0.25-0.86,0.25H6.82V9.07z M10.24,14.34c-0.08,0.15-0.19,0.27-0.32,0.36c-0.13,0.09-0.29,0.15-0.46,0.19
			c-0.17,0.04-0.36,0.06-0.55,0.06H6.82v-2.45h2.13c0.42,0,0.76,0.1,1.02,0.29c0.26,0.2,0.39,0.52,0.39,0.98
			C10.35,14,10.32,14.19,10.24,14.34z"/>
		<path class="st1" d="M19.19,12.23c-0.12-0.46-0.3-0.87-0.57-1.22c-0.26-0.36-0.6-0.64-1-0.85c-0.41-0.21-0.89-0.32-1.43-0.32
			c-0.49,0-0.94,0.09-1.34,0.26c-0.4,0.18-0.75,0.41-1.04,0.72c-0.29,0.3-0.51,0.66-0.67,1.08c-0.16,0.42-0.24,0.87-0.24,1.35
			c0,0.5,0.08,0.96,0.23,1.37c0.16,0.42,0.37,0.77,0.65,1.07c0.29,0.3,0.63,0.53,1.04,0.69c0.41,0.16,0.87,0.24,1.37,0.24
			c0.73,0,1.35-0.17,1.87-0.5c0.52-0.33,0.9-0.89,1.15-1.66h-1.56c-0.06,0.2-0.22,0.39-0.47,0.57c-0.26,0.18-0.57,0.27-0.92,0.27
			c-0.5,0-0.88-0.13-1.14-0.39c-0.27-0.26-0.44-0.74-0.44-1.25h4.65C19.35,13.16,19.31,12.68,19.19,12.23z M14.66,12.55
			c0.01-0.13,0.04-0.27,0.08-0.42c0.05-0.16,0.12-0.31,0.24-0.45c0.11-0.14,0.27-0.26,0.45-0.36c0.19-0.1,0.42-0.14,0.7-0.14
			c0.43,0,0.79,0.13,1,0.36c0.21,0.23,0.37,0.57,0.41,1.02H14.66z"/>
		<rect x="14.3" y="8.16" class="st1" width="3.61" height="0.88"/>
	</g>
</g>
<g>
	<radialGradient id="SVGID_2_" cx="47.7158" cy="3.9348" r="12.0913" gradientUnits="userSpaceOnUse">
		<stop  offset="0.0178" style="stop-color:#C6436A"/>
		<stop  offset="0.6779" style="stop-color:#8A1E35"/>
		<stop  offset="1" style="stop-color:#751325"/>
	</radialGradient>
	<path class="st2" d="M43.21-8.16h9.02c4.17,0,7.58,3.41,7.58,7.58v9.02c0,4.17-3.41,7.58-7.58,7.58h-9.02
		c-4.17,0-7.58-3.41-7.58-7.58v-9.02C35.62-4.74,39.04-8.16,43.21-8.16z"/>
	<path class="st1" d="M52.99-1.55H42.57c-0.88,0-1.59,0.71-1.59,1.59v7.8c0,0.88,0.71,1.59,1.59,1.59h10.42
		c0.88,0,1.59-0.71,1.59-1.59v-7.8C54.58-0.84,53.87-1.55,52.99-1.55z M51.93,0l-4.15,2.97L43.77,0H51.93z M52.99,7.87H42.57
		c-0.02,0-0.04-0.02-0.04-0.04V1.02l5.24,3.87l5.25-3.77v6.7C53.03,7.85,53.01,7.87,52.99,7.87z"/>
</g>
</svg>
