<?xml version="1.0" encoding="utf-8"?>
<!-- Generator: Adobe Illustrator 25.2.1, SVG Export Plug-In . SVG Version: 6.00 Build 0)  -->
<svg version="1.1" id="Capa_1" xmlns="http://www.w3.org/2000/svg" xmlns:xlink="http://www.w3.org/1999/xlink" x="0px" y="0px"
	 viewBox="0 0 1100 400" style="enable-background:new 0 0 1100 400;" xml:space="preserve">
<style type="text/css">
	.st0{fill:#DCDDD8;}
	.st1{clip-path:url(#SVGID_2_);fill:url(#SVGID_3_);}
	.st2{fill:url(#SVGID_4_);}
	.st3{fill:url(#SVGID_5_);}
	.st4{fill:url(#SVGID_6_);}
	.st5{fill:url(#SVGID_7_);}
	.st6{fill:url(#SVGID_8_);}
	.st7{fill:url(#SVGID_9_);}
	.st8{fill:url(#SVGID_10_);}
	.st9{fill:url(#SVGID_11_);}
	.st10{fill:url(#SVGID_12_);}
	.st11{fill:url(#SVGID_13_);}
	.st12{fill:url(#SVGID_14_);}
	.st13{fill:url(#SVGID_15_);}
	.st14{fill:url(#SVGID_16_);}
	.st15{fill:url(#SVGID_17_);}
	.st16{fill:url(#SVGID_18_);}
	.st17{fill:none;}
	.st18{fill:#C6436A;}
	.st19{font-family:'PTSans-Bold';}
	.st20{font-size:22.4938px;}
	.st21{fill:none;stroke:#9D0009;stroke-miterlimit:10;}
	.st22{clip-path:url(#SVGID_20_);fill:url(#SVGID_21_);}
	.st23{clip-path:url(#SVGID_23_);fill:#C6436A;}
	.st24{clip-path:url(#SVGID_25_);fill:#C6436A;}
</style>
<rect x="-8.99" class="st0" width="1118.13" height="400"/>
<g>
	<defs>
		
			<rect id="SVGID_1_" x="982.35" y="26.94" transform="matrix(-1 -4.491752e-11 4.491752e-11 -1 2080.718 161.5017)" width="116.02" height="107.61"/>
	</defs>
	<clipPath id="SVGID_2_">
		<use xlink:href="#SVGID_1_"  style="overflow:visible;"/>
	</clipPath>
	
		<radialGradient id="SVGID_3_" cx="1391.2057" cy="62.1795" r="79.3759" gradientTransform="matrix(-1 0 0 1 2489.5757 0)" gradientUnits="userSpaceOnUse">
		<stop  offset="0.0178" style="stop-color:#C6436A"/>
		<stop  offset="0.6779" style="stop-color:#8A1E35"/>
		<stop  offset="1" style="stop-color:#751325"/>
	</radialGradient>
	<polyline class="st1" points="1073.83,2.4 1003.36,26.94 1073.83,51.49 1098.37,121.96 1122.91,51.49 1193.38,26.94 1122.91,2.4 	
		"/>
</g>
<g>
	<g>
		<radialGradient id="SVGID_4_" cx="389.301" cy="203.7984" r="17.3243" gradientUnits="userSpaceOnUse">
			<stop  offset="0.0178" style="stop-color:#C6436A"/>
			<stop  offset="0.6779" style="stop-color:#8A1E35"/>
			<stop  offset="1" style="stop-color:#751325"/>
		</radialGradient>
		<path class="st2" d="M377.01,213.7c0.34,2.63,1.96,2.75,2.93,2.62c0.39-0.05,0.75,0.23,0.8,0.61c0.05,0.39-0.23,0.75-0.62,0.8
			l-6.51,0.84c-0.39,0.05-0.75-0.23-0.8-0.62c-0.05-0.39,0.23-0.75,0.62-0.8c1.45-0.19,2.49-0.79,2.15-3.48
			c-0.68-5.32-1.37-10.64-2.06-15.96c-0.35-2.68-1.51-3.01-2.96-2.82c-0.39,0.05-0.75-0.23-0.8-0.62c-0.05-0.39,0.23-0.75,0.62-0.8
			l3.96-0.51l0,0.01c5.12-0.59,7.77-0.33,9.89,3.46c1.55,2.76,3.1,5.53,4.65,8.29l0.28,0.5l3.98-14.67l11.85-1.53
			c0.39-0.05,0.75,0.23,0.8,0.62c0.05,0.39-0.23,0.75-0.62,0.8c-0.97,0.13-2.51,0.65-2.17,3.28c0.7,5.45,1.41,10.91,2.11,16.36
			c0.34,2.63,1.96,2.75,2.93,2.62c0.39-0.05,0.75,0.23,0.8,0.62c0.05,0.39-0.23,0.75-0.62,0.8l-14.41,1.86
			c-0.39,0.05-0.75-0.23-0.8-0.62c-0.05-0.39,0.23-0.75,0.62-0.8c1.45-0.19,2.49-0.79,2.15-3.48l-2.18-16.95l-5.81,21.35
			c-0.26,0.96-0.6,1.3-1.01,1.39c-0.48,0.1-1.05-0.16-1.58-0.99c-0.33-0.51-0.68-1.13-1.09-1.86c-1.51-2.7-3.02-5.39-4.53-8.09
			c-1.51-2.69-3.02-5.39-4.53-8.09c-0.03-0.06-0.07-0.12-0.1-0.18L377.01,213.7z"/>
		<radialGradient id="SVGID_5_" cx="415.8866" cy="200.7125" r="11.4421" gradientUnits="userSpaceOnUse">
			<stop  offset="0.0178" style="stop-color:#C6436A"/>
			<stop  offset="0.6779" style="stop-color:#8A1E35"/>
			<stop  offset="1" style="stop-color:#751325"/>
		</radialGradient>
		<path class="st3" d="M421.4,208.43c0.27,2.63,1.89,2.79,2.87,2.69c0.39-0.04,0.74,0.25,0.78,0.63c0.04,0.39-0.24,0.74-0.63,0.78
			l-14.45,1.5c-0.39,0.04-0.74-0.24-0.78-0.63c-0.04-0.39,0.24-0.74,0.63-0.78c1.45-0.15,2.51-0.73,2.23-3.42
			c-0.56-5.33-1.11-10.67-1.67-16.01c-0.28-2.69-1.44-3.04-2.89-2.89c-0.39,0.04-0.74-0.24-0.78-0.63
			c-0.04-0.39,0.24-0.74,0.63-0.78l14.45-1.5c0.39-0.04,0.74,0.24,0.78,0.63c0.04,0.39-0.24,0.74-0.63,0.78
			c-0.97,0.1-2.53,0.59-2.25,3.22C420.26,197.49,420.84,202.96,421.4,208.43z"/>
		<radialGradient id="SVGID_6_" cx="451.0417" cy="197.5887" r="16.6426" gradientUnits="userSpaceOnUse">
			<stop  offset="0.0178" style="stop-color:#C6436A"/>
			<stop  offset="0.6779" style="stop-color:#8A1E35"/>
			<stop  offset="1" style="stop-color:#751325"/>
		</radialGradient>
		<path class="st4" d="M438.24,206.81c0.2,2.64,1.81,2.85,2.79,2.77c0.39-0.03,0.73,0.27,0.76,0.66c0.03,0.39-0.27,0.73-0.66,0.76
			l-6.54,0.49c-0.39,0.03-0.73-0.27-0.76-0.66c-0.03-0.39,0.27-0.73,0.66-0.76c1.46-0.11,2.53-0.66,2.33-3.36
			c-0.4-5.35-0.8-10.69-1.2-16.04c-0.2-2.7-1.35-3.08-2.8-2.97c-0.39,0.03-0.73-0.27-0.76-0.66c-0.03-0.39,0.27-0.73,0.66-0.76
			l3.98-0.3l0,0.01c5.15-0.32,7.78,0.09,9.69,3.98c1.4,2.84,2.79,5.68,4.19,8.52l0.25,0.51l4.76-14.43l11.91-0.89
			c0.39-0.03,0.73,0.27,0.76,0.66c0.03,0.39-0.27,0.73-0.66,0.76c-0.98,0.07-2.54,0.52-2.34,3.16c0.41,5.48,0.82,10.96,1.23,16.44
			c0.2,2.64,1.81,2.85,2.79,2.77c0.39-0.03,0.73,0.27,0.76,0.66s-0.27,0.73-0.66,0.76l-14.48,1.08c-0.39,0.03-0.73-0.27-0.76-0.66
			c-0.03-0.39,0.27-0.73,0.66-0.76c1.46-0.11,2.53-0.66,2.33-3.36l-1.27-17.04l-6.95,21c-0.31,0.95-0.66,1.27-1.08,1.33
			c-0.48,0.08-1.04-0.22-1.52-1.08c-0.3-0.53-0.62-1.16-0.98-1.91c-1.36-2.77-2.73-5.54-4.09-8.31c-1.36-2.77-2.73-5.55-4.09-8.32
			c-0.03-0.06-0.06-0.12-0.09-0.18L438.24,206.81z"/>
		<radialGradient id="SVGID_7_" cx="483.0375" cy="195.4064" r="13.6568" gradientUnits="userSpaceOnUse">
			<stop  offset="0.0178" style="stop-color:#C6436A"/>
			<stop  offset="0.6779" style="stop-color:#8A1E35"/>
			<stop  offset="1" style="stop-color:#751325"/>
		</radialGradient>
		<path class="st5" d="M482.35,199.78c0.21,4.11,3.63,6.43,6.72,5.54c1.98-0.57,4.41-2.44,4.22-6.09c-0.2-4.06-0.41-8.13-0.61-12.19
			c-0.14-2.7-1.27-3.11-2.73-3.04c-0.39,0.02-0.73-0.28-0.75-0.67c-0.02-0.39,0.28-0.73,0.67-0.75l6.55-0.33
			c0.39-0.02,0.73,0.28,0.75,0.67c0.02,0.39-0.28,0.73-0.67,0.75c-0.98,0.05-2.55,0.45-2.42,3.1c0.21,4.25,0.43,8.5,0.64,12.75
			c0.3,5.97-4.7,8.85-9.98,9.03c-5.58,0.2-11.43-1.73-11.79-8.82c-0.21-4.18-0.38-7.49-0.59-11.67c-0.14-2.7-1.27-3.11-2.73-3.04
			c-0.39,0.02-0.73-0.28-0.74-0.67c-0.02-0.39,0.28-0.73,0.67-0.75l14.5-0.73c0.39-0.02,0.73,0.28,0.75,0.67
			c0.02,0.39-0.28,0.73-0.67,0.75c-0.98,0.05-2.55,0.45-2.42,3.1C481.93,191.52,482.14,195.65,482.35,199.78z"/>
		<radialGradient id="SVGID_8_" cx="511.7619" cy="194.4126" r="13.5492" gradientUnits="userSpaceOnUse">
			<stop  offset="0.0178" style="stop-color:#C6436A"/>
			<stop  offset="0.6779" style="stop-color:#8A1E35"/>
			<stop  offset="1" style="stop-color:#751325"/>
		</radialGradient>
		<path class="st6" d="M505.68,205.83c0.39-0.01,0.72,0.3,0.73,0.69c0.01,0.39-0.3,0.72-0.69,0.73l-6.56,0.2
			c-0.39,0.01-0.72-0.3-0.73-0.69c-0.01-0.39,0.3-0.72,0.69-0.73c1.46-0.04,2.56-0.54,2.48-3.25c-0.16-5.36-0.32-10.72-0.48-16.09
			c-0.08-2.7-1.21-3.14-2.67-3.1c-0.39,0.01-0.72-0.3-0.73-0.69c-0.01-0.39,0.3-0.72,0.69-0.73l2.81-0.08v-0.01
			c6.73-0.21,9.94-0.11,13.48,3.62l6.72,7.09l-0.2-6.7c-0.08-2.7-1.21-3.14-2.67-3.1c-0.39,0.01-0.72-0.3-0.73-0.69
			c-0.01-0.39,0.3-0.72,0.69-0.73l6.56-0.2c0.39-0.01,0.72,0.3,0.73,0.69c0.01,0.39-0.3,0.72-0.69,0.73
			c-0.98,0.03-2.56,0.4-2.48,3.05l0.62,20.88l-1.41,0.04l-19.31-20.28l0.49,16.45C503.1,205.58,504.7,205.86,505.68,205.83z"/>
		<radialGradient id="SVGID_9_" cx="539.7579" cy="193.8971" r="13.0366" gradientUnits="userSpaceOnUse">
			<stop  offset="0.0178" style="stop-color:#C6436A"/>
			<stop  offset="0.6779" style="stop-color:#8A1E35"/>
			<stop  offset="1" style="stop-color:#751325"/>
		</radialGradient>
		<path class="st7" d="M527.39,206.62c-0.39,0-0.71-0.31-0.72-0.7c0-0.39,0.31-0.71,0.7-0.72c1.46-0.02,2.57-0.5,2.54-3.2
			c-0.06-5.36-0.11-10.72-0.17-16.09c-0.03-2.7-1.15-3.16-2.61-3.15c-0.39,0-0.71-0.31-0.72-0.7c0-0.39,0.31-0.71,0.7-0.72l9.44-0.1
			c3.74-0.04,7.63-0.4,10.64,0.87c7.79,3.28,8.02,20.37-0.27,23.6c-2.69,1.05-5.96,0.77-8.84,0.8L527.39,206.62z M539.08,182.65
			c0.08,7.48,0.16,14.95,0.23,22.43C544.79,204.33,544.04,183.7,539.08,182.65z"/>
		<radialGradient id="SVGID_10_" cx="566.2561" cy="193.6418" r="12.2336" gradientUnits="userSpaceOnUse">
			<stop  offset="0.0178" style="stop-color:#C6436A"/>
			<stop  offset="0.6779" style="stop-color:#8A1E35"/>
			<stop  offset="1" style="stop-color:#751325"/>
		</radialGradient>
		<path class="st8" d="M577.71,193.72c-0.05,7.16-5.22,12.93-11.54,12.89c-6.33-0.04-11.42-5.88-11.37-13.04
			c0.05-7.16,5.21-12.93,11.54-12.89C572.67,180.72,577.76,186.56,577.71,193.72z M566.33,182.33c-0.9-0.01-1.66,5.3-1.7,11.3
			c-0.04,6,0.65,11.32,1.55,11.32c0.9,0.01,1.66-5.3,1.7-11.3C567.92,187.65,567.23,182.34,566.33,182.33z"/>
		<radialGradient id="SVGID_11_" cx="602.1036" cy="194.2646" r="14.0172" gradientUnits="userSpaceOnUse">
			<stop  offset="0.0178" style="stop-color:#C6436A"/>
			<stop  offset="0.6779" style="stop-color:#8A1E35"/>
			<stop  offset="1" style="stop-color:#751325"/>
		</radialGradient>
		<path class="st9" d="M591.19,185.88c-0.76-2.67-2.44-3.05-3.42-3.08c-0.96-0.03-0.96-1.45-0.02-1.42
			c0.86,0.03,1.72,0.05,2.57,0.08c1.56,0.05,3.13,0.1,4.69,0.14c1.56,0.05,3.12,0.1,4.68,0.14c0.86,0.03,1.72,0.05,2.57,0.08
			c0.95,0.03,0.95,1.45,0.02,1.42c-1.46-0.04-2.44,0.39-1.67,3.12c0.77,2.71,1.54,5.42,2.3,8.12c0.77,2.71,1.54,5.42,2.3,8.12
			c0.06,0.21,0.12,0.4,0.19,0.59c0.08-0.18,0.15-0.37,0.22-0.57c0.93-2.66,1.87-5.31,2.8-7.97c0.93-2.65,1.87-5.31,2.8-7.96
			c0.94-2.68-0.01-3.18-1.47-3.22c-0.93-0.03-0.84-1.45,0.11-1.42c4.84,0.15,1.8,0.06,6.64,0.2c0.93,0.03,0.85,1.45-0.11,1.42
			c-0.98-0.03-2.68,0.24-3.61,2.86c-0.96,2.72-1.91,5.44-2.87,8.16l-1.61,4.58l-1.6,4.49c-0.74,1.88-0.89,3.32-3.54,3.38
			c-0.76,0.02-1.83-0.06-3.1-0.1c-2.89-0.09-3.38-1.75-4.17-4.53c-0.79-2.77-1.57-5.55-2.36-8.33
			C592.76,191.43,591.97,188.65,591.19,185.88z"/>
		<radialGradient id="SVGID_12_" cx="624.6275" cy="195.3627" r="10.9756" gradientUnits="userSpaceOnUse">
			<stop  offset="0.0178" style="stop-color:#C6436A"/>
			<stop  offset="0.6779" style="stop-color:#8A1E35"/>
			<stop  offset="1" style="stop-color:#751325"/>
		</radialGradient>
		<path class="st10" d="M628.92,203.82c-0.13,2.65,1.45,3.04,2.43,3.09c0.39,0.02,0.69,0.35,0.68,0.74
			c-0.02,0.39-0.35,0.7-0.74,0.68l-14.5-0.69c-0.39-0.02-0.69-0.35-0.68-0.74c0.02-0.39,0.35-0.7,0.74-0.68
			c1.46,0.07,2.59-0.34,2.72-3.05c0.25-5.36,0.51-10.71,0.76-16.07c0.13-2.7-0.96-3.22-2.42-3.29c-0.39-0.02-0.7-0.35-0.68-0.74
			c0.02-0.39,0.35-0.7,0.74-0.68l14.5,0.69c0.39,0.02,0.7,0.35,0.68,0.74c-0.02,0.39-0.35,0.7-0.74,0.68
			c-0.98-0.05-2.59,0.2-2.71,2.85C629.44,192.84,629.18,198.33,628.92,203.82z"/>
		<radialGradient id="SVGID_13_" cx="644.8366" cy="196.5148" r="12.1953" gradientUnits="userSpaceOnUse">
			<stop  offset="0.0178" style="stop-color:#C6436A"/>
			<stop  offset="0.6779" style="stop-color:#8A1E35"/>
			<stop  offset="1" style="stop-color:#751325"/>
		</radialGradient>
		<path class="st11" d="M652.88,190.37c-1.93-3.89-3.9-5.2-6.43-5.62c-2.43-0.4-3.58,0.9-3.59,2.26c0,1.29,1.03,2.61,2.5,3.66
			c5.76,4.15,12.36,7.91,9.37,14.08c-1.88,3.6-6.78,5.2-11.59,4.48c-3.09-0.46-6.57-2.24-8.81-4.96c-2.7-3.04,1.06-4.94,2.08-2.81
			c1.93,3.89,4.2,6.04,6.74,6.46c3.18,0.53,4.25-1.24,3.55-3.15c-0.33-0.92-1.19-1.85-2.21-2.62c-5.12-3.9-10.59-6.74-10.29-11.74
			c0.1-1.59,0.95-3.19,2.92-4.69c4.54-3.45,13.5-2.72,18.22,2.6C658.06,191.37,654.21,193.13,652.88,190.37z"/>
		<radialGradient id="SVGID_14_" cx="671.8438" cy="198.046" r="13.7612" gradientUnits="userSpaceOnUse">
			<stop  offset="0.0178" style="stop-color:#C6436A"/>
			<stop  offset="0.6779" style="stop-color:#8A1E35"/>
			<stop  offset="1" style="stop-color:#751325"/>
		</radialGradient>
		<path class="st12" d="M669.03,202.37c-0.34,4.1,2.75,6.85,5.93,6.38c2.04-0.3,4.69-1.84,4.99-5.48c0.33-4.05,0.67-8.11,1-12.16
			c0.22-2.7-0.85-3.25-2.3-3.37c-0.39-0.03-0.68-0.38-0.65-0.77c0.03-0.39,0.38-0.68,0.77-0.65l6.54,0.54
			c0.39,0.03,0.68,0.38,0.65,0.77c-0.03,0.39-0.38,0.68-0.77,0.65c-0.98-0.08-2.59,0.11-2.81,2.75c-0.35,4.24-0.7,8.48-1.05,12.72
			c-0.49,5.96-5.83,8.15-11.08,7.64c-5.56-0.54-11.1-3.23-10.52-10.3c0.34-4.17,0.62-7.47,0.96-11.64c0.22-2.7-0.85-3.25-2.3-3.37
			c-0.39-0.03-0.68-0.38-0.65-0.77c0.03-0.39,0.38-0.68,0.77-0.65l14.47,1.19c0.39,0.03,0.68,0.38,0.65,0.77
			c-0.03,0.39-0.38,0.68-0.77,0.65c-0.98-0.08-2.59,0.11-2.81,2.75C669.71,194.13,669.37,198.25,669.03,202.37z"/>
		<radialGradient id="SVGID_15_" cx="698.7789" cy="201.4789" r="14.3715" gradientUnits="userSpaceOnUse">
			<stop  offset="0.0178" style="stop-color:#C6436A"/>
			<stop  offset="0.6779" style="stop-color:#8A1E35"/>
			<stop  offset="1" style="stop-color:#751325"/>
		</radialGradient>
		<path class="st13" d="M691.05,202.19c-0.99-0.21-1.97-0.3-2.92-0.22c-2.7,0.3-2.89-3.77,1.79-2.94c3.56,0.69,7.59,3.61,9.89,6.59
			c-0.31-1.54-0.63-3.08-0.94-4.63c-0.56-2.75-1.12-5.52-1.68-8.27c-0.04-0.21-0.09-0.41-0.14-0.6c-0.09,0.17-0.18,0.36-0.26,0.56
			c-1.02,2.34-2.05,4.67-3.08,7.01c-0.43-0.22-0.86-0.42-1.3-0.6c0.99-2.25,1.98-4.51,2.97-6.76c0.33-0.76,0.64-1.38,0.93-1.89
			c-0.62-0.88-1.44-1.15-2.35-1.25c-0.95-0.1-0.9-1.53,0.02-1.43c0.85,0.09,1.71,0.18,2.56,0.27c8.48,0.91,9.07,1.27,9.92,5.48
			c0.58,2.83,1.15,5.65,1.72,8.48c0.58,2.83,1.15,5.65,1.72,8.48c0.55,2.72,2.2,3.23,3.18,3.33c0.95,0.1,0.84,1.52-0.09,1.42
			c-0.85-0.09-1.7-0.18-2.56-0.27c-1.55-0.17-3.11-0.33-4.66-0.5c-1.55-0.17-3.11-0.33-4.66-0.5c-0.85-0.09-1.71-0.18-2.56-0.27
			c-0.94-0.1-0.84-1.52,0.09-1.42c1.45,0.16,2.46-0.21,1.9-2.99l-0.12-0.62c-1.2-2.31-4.48-4.9-7.99-6.07
			c-0.81,1.85-1.63,3.71-2.44,5.56c-1.14,2.6-0.23,3.17,1.22,3.32c0.92,0.1,0.73,1.51-0.22,1.41c-4.81-0.52-1.79-0.19-6.6-0.71
			c-0.93-0.1-0.74-1.51,0.22-1.41c0.97,0.1,2.7-0.04,3.81-2.58C689.31,206.17,690.18,204.18,691.05,202.19z"/>
		<radialGradient id="SVGID_16_" cx="725.9757" cy="204.2867" r="13.2742" gradientUnits="userSpaceOnUse">
			<stop  offset="0.0178" style="stop-color:#C6436A"/>
			<stop  offset="0.6779" style="stop-color:#8A1E35"/>
			<stop  offset="1" style="stop-color:#751325"/>
		</radialGradient>
		<path class="st14" d="M719.35,195.2c0.36-2.68-0.69-3.29-2.13-3.49c-0.39-0.05-0.66-0.41-0.61-0.8c0.05-0.39,0.41-0.66,0.8-0.61
			l14.4,1.91c0.39,0.05,0.66,0.41,0.61,0.8c-0.05,0.39-0.41,0.66-0.8,0.61c-0.97-0.13-2.59-0.02-2.94,2.61
			c-0.85,6.43-1.71,12.86-2.56,19.29l0,0.03l7.8,1.04c1.43,0.19,2.42-0.02,3.18-2.25c0.3-0.88,1.53-0.69,1.4,0.25
			c-0.55,4.11-0.8,3.92-4.77,3.4c-5.71-0.76-11.39-1.53-17.1-2.28l-2.55-0.34c-0.39-0.05-0.66-0.41-0.61-0.8s0.41-0.66,0.8-0.61
			c1.45,0.19,2.61-0.13,2.97-2.81C717.94,205.84,718.64,200.52,719.35,195.2z"/>
	</g>
	<radialGradient id="SVGID_17_" cx="328.5118" cy="211.3519" r="18.571" gradientUnits="userSpaceOnUse">
		<stop  offset="0.0178" style="stop-color:#C6436A"/>
		<stop  offset="0.6779" style="stop-color:#8A1E35"/>
		<stop  offset="1" style="stop-color:#751325"/>
	</radialGradient>
	<polygon class="st15" points="328.51,192.78 333.86,206.01 347.08,211.35 333.86,216.7 328.51,229.92 323.17,216.7 309.94,211.35 
		323.17,206.01 	"/>
	<radialGradient id="SVGID_18_" cx="767.7914" cy="211.3519" r="18.571" gradientUnits="userSpaceOnUse">
		<stop  offset="0.0178" style="stop-color:#C6436A"/>
		<stop  offset="0.6779" style="stop-color:#8A1E35"/>
		<stop  offset="1" style="stop-color:#751325"/>
	</radialGradient>
	<polygon class="st16" points="767.79,192.78 773.14,206.01 786.36,211.35 773.14,216.7 767.79,229.92 762.45,216.7 749.22,211.35 
		762.45,206.01 	"/>
</g>
<rect x="481.21" y="226.96" class="st17" width="133.87" height="26.95"/>
<text transform="matrix(1 0 0 1 481.2148 242.7094)" class="st18 st19 st20">CURRÍCULUM</text>
<line class="st21" x1="1.3" y1="25.74" x2="218.67" y2="25.74"/>
<line class="st21" x1="881.69" y1="26.94" x2="1099.07" y2="26.94"/>
<line class="st21" x1="1098.37" y1="26.94" x2="1098.37" y2="244.32"/>
<line class="st21" x1="1.72" y1="25.25" x2="1.72" y2="242.62"/>
<g>
	<defs>
		<rect id="SVGID_19_" x="1.72" y="25.74" width="116.02" height="107.61"/>
	</defs>
	<clipPath id="SVGID_20_">
		<use xlink:href="#SVGID_19_"  style="overflow:visible;"/>
	</clipPath>
	<radialGradient id="SVGID_21_" cx="1.7234" cy="60.9746" r="79.3759" gradientUnits="userSpaceOnUse">
		<stop  offset="0.0178" style="stop-color:#C6436A"/>
		<stop  offset="0.6779" style="stop-color:#8A1E35"/>
		<stop  offset="1" style="stop-color:#751325"/>
	</radialGradient>
	<polyline class="st22" points="26.27,1.2 96.74,25.74 26.27,50.28 1.72,120.75 -22.82,50.28 -93.29,25.74 -22.82,1.2 	"/>
</g>
<g>
	<defs>
		<rect id="SVGID_22_" x="11.51" y="36.41" width="116.02" height="107.61"/>
	</defs>
	<clipPath id="SVGID_23_">
		<use xlink:href="#SVGID_22_"  style="overflow:visible;"/>
	</clipPath>
	<polyline class="st23" points="36.06,11.86 106.53,36.41 36.06,60.95 11.51,131.42 -13.03,60.95 -83.5,36.41 -13.03,11.86 	"/>
</g>
<g>
	<defs>
		
			<rect id="SVGID_24_" x="972.21" y="36.41" transform="matrix(-1 -4.488599e-11 4.488599e-11 -1 2060.439 180.428)" width="116.02" height="107.61"/>
	</defs>
	<clipPath id="SVGID_25_">
		<use xlink:href="#SVGID_24_"  style="overflow:visible;"/>
	</clipPath>
	<polyline class="st24" points="1063.69,11.86 993.22,36.41 1063.69,60.95 1088.23,131.42 1112.77,60.95 1183.24,36.41 
		1112.77,11.86 	"/>
</g>
</svg>
