<?xml version="1.0" encoding="utf-8"?>
<!-- Generator: Adobe Illustrator 25.2.1, SVG Export Plug-In . SVG Version: 6.00 Build 0)  -->
<svg version="1.1" id="Capa_1" xmlns="http://www.w3.org/2000/svg" xmlns:xlink="http://www.w3.org/1999/xlink" x="0px" y="0px"
	 viewBox="0 0 22.1 22.1" style="enable-background:new 0 0 22.1 22.1;" xml:space="preserve">
<style type="text/css">
	.st0{fill:url(#SVGID_1_);}
	.st1{fill:#FFFFFF;}
	.st2{fill:url(#SVGID_2_);}
	.st3{fill:url(#SVGID_3_);}
</style>
<g>
	
		<radialGradient id="SVGID_1_" cx="11.062" cy="25.5026" r="10.9164" gradientTransform="matrix(1 0 0 1.0272 0 -15.1339)" gradientUnits="userSpaceOnUse">
		<stop  offset="1.779265e-02" style="stop-color:#C6436A"/>
		<stop  offset="0.6751" style="stop-color:#8C2139"/>
		<stop  offset="1" style="stop-color:#751325"/>
	</radialGradient>
	<path class="st0" d="M11.1,22.1c-2.4,0-4.7,0-7.1,0c-1,0-1.8-0.3-2.6-1c-0.8-0.7-1.2-1.6-1.3-2.6c0-0.2,0-0.4,0-0.5
		c0-4.6,0-9.2,0-13.8c0-1,0.3-1.9,0.9-2.7C1.6,0.7,2.4,0.2,3.4,0c0.2,0,0.4,0,0.7,0c4.7,0,9.3,0,14,0c1,0,1.8,0.3,2.6,0.9
		c0.7,0.6,1.2,1.4,1.4,2.4c0.1,0.3,0.1,0.6,0.1,0.9c0,4.6,0,9.2,0,13.8c0,1.2-0.4,2.2-1.3,3c-0.6,0.6-1.3,0.9-2,1
		c-0.3,0-0.5,0.1-0.8,0.1C15.7,22.1,13.4,22.1,11.1,22.1z M7.3,5.9c-0.2,0-0.5,0-0.7,0c-0.1,0-0.3,0-0.4,0C6.1,5.9,6,6,6,6
		c0,0.1,0,0.1,0,0.2c0,0.2,0,0.4-0.1,0.6C5.7,7.4,5.5,8,5.3,8.5c-0.5,1.4-1,2.9-1.5,4.3c-0.3,0.8-0.6,1.7-0.9,2.5
		c0,0.1,0,0.1-0.1,0.2c0,0.1,0,0.1,0.1,0.1c0,0,0.1,0,0.1,0c0.5,0,1,0,1.5,0c0.2,0,0.2,0,0.3-0.2c0.2-0.6,0.4-1.3,0.6-1.9
		c0.1-0.2,0.1-0.2,0.3-0.2c1,0,2,0,3,0c0.2,0,0.2,0,0.3,0.2c0.2,0.6,0.4,1.3,0.6,1.9c0.1,0.2,0.1,0.2,0.3,0.2c0.5,0,1,0,1.5,0
		c0.4,0,0.4,0,0.3-0.4c-0.2-0.7-0.5-1.3-0.7-2c-0.3-1-0.7-1.9-1-2.9C9.7,9.4,9.4,8.3,9,7.2C8.8,6.8,8.7,6.5,8.6,6.1
		c0-0.1-0.1-0.1-0.2-0.1C8,5.9,7.7,5.9,7.3,5.9z M18.2,13.6c-0.4,0.1-0.7,0.2-1.1,0.2c-0.5,0-0.9,0.1-1.4,0
		c-0.7-0.2-1.2-0.6-1.4-1.4c0-0.2,0-0.2,0.2-0.2c1.2,0,2.3,0,3.5,0c0.3,0,0.5,0,0.8,0c0.1,0,0.1,0,0.1-0.1c0-0.3,0-0.5,0-0.8
		c0-0.5-0.1-0.9-0.2-1.4c-0.3-0.9-0.9-1.5-1.9-1.8c-0.6-0.2-1.2-0.2-1.8-0.1c-1,0.2-1.7,0.7-2.2,1.7c-0.3,0.7-0.5,1.5-0.5,2.3
		c0,0.4,0.1,0.9,0.2,1.3c0.4,1.2,1.1,1.9,2.3,2.3c0.6,0.2,1.3,0.2,1.9,0.1c0.5-0.1,1-0.2,1.4-0.3c0.1,0,0.1-0.1,0.1-0.1
		C18.2,14.6,18.2,14.1,18.2,13.6z"/>
	<path class="st1" d="M7.3,5.9c0.4,0,0.7,0,1.1,0c0.1,0,0.2,0,0.2,0.1C8.7,6.5,8.8,6.8,9,7.2c0.4,1.1,0.7,2.1,1.1,3.2
		c0.3,1,0.7,1.9,1,2.9c0.2,0.7,0.5,1.3,0.7,2c0.1,0.4,0.1,0.4-0.3,0.4c-0.5,0-1,0-1.5,0c-0.2,0-0.2,0-0.3-0.2
		c-0.2-0.6-0.4-1.3-0.6-1.9C9,13.3,9,13.3,8.8,13.3c-1,0-2,0-3,0c-0.2,0-0.2,0-0.3,0.2c-0.2,0.6-0.4,1.3-0.6,1.9
		c-0.1,0.2-0.1,0.2-0.3,0.2c-0.5,0-1,0-1.5,0c0,0-0.1,0-0.1,0c-0.1,0-0.1,0-0.1-0.1c0-0.1,0-0.1,0.1-0.2c0.3-0.8,0.6-1.7,0.9-2.5
		c0.5-1.4,1-2.9,1.5-4.3C5.5,8,5.7,7.4,5.9,6.8C6,6.6,6,6.4,6,6.2C6,6.1,6,6.1,6,6c0-0.1,0-0.1,0.1-0.1c0.1,0,0.3,0,0.4,0
		C6.8,5.9,7,5.9,7.3,5.9z M7.3,7.7C7.2,7.7,7.2,7.8,7.3,7.7C7.2,8.1,7.1,8.3,7,8.6c-0.3,0.9-0.5,1.8-0.8,2.7c0,0.2,0,0.2,0.1,0.2
		c0.3,0,0.6,0,0.9,0c0.4,0,0.7,0,1.1,0c0.1,0,0.1,0,0.1-0.1c-0.1-0.2-0.1-0.5-0.2-0.7C7.9,9.7,7.7,8.9,7.4,8
		C7.4,7.9,7.3,7.8,7.3,7.7z"/>
	<path class="st1" d="M18.2,13.6c0,0.5,0,1,0,1.5c0,0.1,0,0.1-0.1,0.1c-0.5,0.2-0.9,0.3-1.4,0.3c-0.6,0.1-1.3,0.1-1.9-0.1
		c-1.2-0.3-1.9-1.1-2.3-2.3c-0.1-0.4-0.2-0.8-0.2-1.3c0-0.8,0.1-1.6,0.5-2.3c0.4-0.9,1.2-1.5,2.2-1.7c0.6-0.1,1.2-0.1,1.8,0.1
		c0.9,0.3,1.5,0.9,1.9,1.8c0.2,0.4,0.2,0.9,0.2,1.4c0,0.3,0,0.5,0,0.8c0,0.1,0,0.1-0.1,0.1c-0.3,0-0.5,0-0.8,0c-1.2,0-2.3,0-3.5,0
		c-0.2,0-0.2,0-0.2,0.2c0.2,0.8,0.6,1.2,1.4,1.4c0.5,0.1,0.9,0.1,1.4,0C17.5,13.8,17.8,13.7,18.2,13.6z M15.6,10.8
		c0.4,0,0.8,0,1.2,0c0.1,0,0.1,0,0.1-0.1c-0.1-1.1-1.3-1.6-2.1-1c-0.4,0.2-0.6,0.6-0.6,1c0,0.2,0,0.2,0.1,0.2
		C14.8,10.8,15.2,10.8,15.6,10.8z"/>
	
		<radialGradient id="SVGID_2_" cx="7.2955" cy="24.0833" r="1.5163" gradientTransform="matrix(1 0 0 1.0272 0 -15.1339)" gradientUnits="userSpaceOnUse">
		<stop  offset="1.779265e-02" style="stop-color:#C6436A"/>
		<stop  offset="0.6751" style="stop-color:#8C2139"/>
		<stop  offset="1" style="stop-color:#751325"/>
	</radialGradient>
	<path class="st2" d="M7.3,7.7C7.3,7.8,7.4,7.9,7.4,8c0.3,0.9,0.5,1.8,0.8,2.6c0.1,0.2,0.1,0.5,0.2,0.7c0,0.1,0,0.1-0.1,0.1
		c-0.4,0-0.7,0-1.1,0c-0.3,0-0.6,0-0.9,0c-0.2,0-0.2,0-0.1-0.2C6.5,10.4,6.7,9.5,7,8.6C7.1,8.3,7.2,8.1,7.3,7.7
		C7.2,7.8,7.2,7.7,7.3,7.7z"/>
	
		<radialGradient id="SVGID_3_" cx="15.6373" cy="24.6031" r="1.0689" gradientTransform="matrix(1 0 0 1.0272 0 -15.1339)" gradientUnits="userSpaceOnUse">
		<stop  offset="1.779265e-02" style="stop-color:#C6436A"/>
		<stop  offset="0.6751" style="stop-color:#8C2139"/>
		<stop  offset="1" style="stop-color:#751325"/>
	</radialGradient>
	<path class="st3" d="M15.6,10.8c-0.4,0-0.8,0-1.2,0c-0.2,0-0.2,0-0.1-0.2c0.1-0.4,0.3-0.8,0.6-1c0.8-0.5,1.9-0.1,2.1,1
		c0,0.1,0,0.1-0.1,0.1C16.5,10.8,16,10.8,15.6,10.8z"/>
</g>
</svg>
