<?xml version="1.0" encoding="utf-8"?>
<!-- Generator: Adobe Illustrator 25.2.1, SVG Export Plug-In . SVG Version: 6.00 Build 0)  -->
<svg version="1.1" id="Capa_1" xmlns="http://www.w3.org/2000/svg" xmlns:xlink="http://www.w3.org/1999/xlink" x="0px" y="0px"
	 viewBox="0 0 22.1 22.1" style="enable-background:new 0 0 22.1 22.1;" xml:space="preserve">
<style type="text/css">
	.st0{fill:#FFFFFF;}
	.st1{fill:url(#SVGID_1_);}
</style>
<g>
	<rect x="3.1" y="2.7" class="st0" width="16.6" height="16"/>
	<g id="_x32_069a460dcf28295e231f3111e03674e">
		<radialGradient id="SVGID_1_" cx="11.062" cy="11.062" r="11.062" gradientUnits="userSpaceOnUse">
			<stop  offset="1.779265e-02" style="stop-color:#C6436A"/>
			<stop  offset="0.6751" style="stop-color:#8C2139"/>
			<stop  offset="1" style="stop-color:#751325"/>
		</radialGradient>
		<path class="st1" d="M18.4,0H3.7C1.7,0,0,1.7,0,3.7v14.7c0,2,1.7,3.7,3.7,3.7h14.7c2,0,3.7-1.7,3.7-3.7V3.7
			C22.1,1.7,20.5,0,18.4,0z M11.4,16.3H5.1V5.8H7v8.9h4.3V16.3z M17,10.4c-0.2,0-0.3-0.1-0.6-0.1c-0.9,0-1.6,0.6-1.7,1.5
			c0,0.2-0.1,0.4-0.1,0.6v3.9h-1.9v-5.2c0-1,0-1.8-0.1-2.5h1.7l0.1,1.5h0.1c0.4-1.1,1.3-1.6,2.1-1.6c0.2,0,0.3,0,0.5,0L17,10.4
			L17,10.4z"/>
	</g>
</g>
</svg>
