<?xml version="1.0" encoding="utf-8"?>
<!-- Generator: Adobe Illustrator 25.2.1, SVG Export Plug-In . SVG Version: 6.00 Build 0)  -->
<svg version="1.1" id="Capa_1" xmlns="http://www.w3.org/2000/svg" xmlns:xlink="http://www.w3.org/1999/xlink" x="0px" y="0px"
	 viewBox="0 0 793.7 793.7" style="enable-background:new 0 0 793.7 793.7;" xml:space="preserve">
<style type="text/css">
	.st0{fill:#FFFFFF;}
	.st1{fill:#260C4F;}
</style>
<rect x="103.62" y="118.25" class="st0" width="597.56" height="575.66"/>
<g id="_x32_069a460dcf28295e231f3111e037552">
	<path class="st1" d="M660.63-2.37H128.34C55.14-2.37-4.74,57.51-4.74,130.7V663c0,73.19,59.88,133.07,133.07,133.07h532.29
		c73.19,0,133.07-59.88,133.07-133.07V130.7C793.7,57.51,733.82-2.37,660.63-2.37z M377.81,403.92
		c-27.71,27.71-71.27,40.73-120.47,40.73c-13.01,0-24.89-0.57-33.94-2.27v143.66h-69V209.92c24.89-4.52,59.39-7.92,106.33-7.92
		c50.91,0,88.24,10.75,112.56,31.11c22.62,18.67,37.33,48.64,37.33,84.27C410.61,353.58,399.3,383.56,377.81,403.92z M522.58,591.7
		c-33.37,0-63.35-7.92-83.71-19.23l13.57-50.34c15.84,9.62,45.82,19.8,70.7,19.8c30.54,0,44.12-12.44,44.12-30.55
		c0-18.66-11.31-28.28-45.25-40.16c-53.74-18.67-76.35-48.08-75.79-80.32c0-48.64,40.16-86.54,104.07-86.54
		c30.55,0,57.13,7.92,72.96,16.4l-13.57,49.21c-11.88-6.78-33.94-15.84-58.26-15.84c-24.89,0-38.46,11.88-38.46,28.84
		c0,17.54,13.01,26.02,48.08,38.47c49.77,18.1,72.96,43.55,73.53,84.28C634.56,555.5,595.54,591.7,522.58,591.7z M341.04,320.21
		c0,44.68-31.68,70.14-83.71,70.14c-14.14,0-25.45-0.57-33.94-2.83V258.56c7.36-1.7,20.93-3.39,40.16-3.39
		C311.64,255.17,341.04,277.79,341.04,320.21z"/>
</g>
</svg>
