<?xml version="1.0" encoding="utf-8"?>
<!-- Generator: Adobe Illustrator 25.2.1, SVG Export Plug-In . SVG Version: 6.00 Build 0)  -->
<svg version="1.1" id="Capa_1" xmlns="http://www.w3.org/2000/svg" xmlns:xlink="http://www.w3.org/1999/xlink" x="0px" y="0px"
	 viewBox="0 0 793.7 793.7" style="enable-background:new 0 0 793.7 793.7;" xml:space="preserve">
<style type="text/css">
	.st0{fill:#FFFFFF;}
	.st1{fill:#260C4F;}
</style>
<rect x="96.37" y="98.24" class="st0" width="597.56" height="575.66"/>
<g id="_x32_069a460dcf28295e231f3111e035a9d">
	<path class="st1" d="M524.67,415.8c1.14,5.65,1.7,12.44,1.7,18.1v41.29c0,7.36-0.56,14.14-2.26,20.36
		c-6.78,29.98-31.67,49.21-59.95,49.21c-44.11,0-69-36.76-69-87.1c0-51.47,24.89-91.06,69.57-91.06
		C496.39,366.59,518.45,388.65,524.67,415.8z M796.07,130.7V663c0,73.19-59.88,133.07-133.07,133.07H130.71
		c-73.19,0-133.07-59.88-133.07-133.07V130.7c0-73.19,59.88-133.07,133.07-133.07H663C736.19-2.37,796.07,57.51,796.07,130.7z
		 M265.07,213.31H195.5v381.22h69.57V213.31z M598.2,594.53c-1.14-18.67-2.27-49.21-2.27-77.48v-324.1h-69.57v156.11h-1.13
		c-12.44-20.36-39.59-36.2-77.48-36.2c-66.18,0-123.87,54.86-123.3,147.06c0,84.84,52.04,140.83,117.64,140.83
		c40.15,0,73.53-19.23,89.93-49.77h1.13l2.83,43.55L598.2,594.53L598.2,594.53z"/>
</g>
</svg>
