<?xml version="1.0" encoding="utf-8"?>
<!-- Generator: Adobe Illustrator 25.2.1, SVG Export Plug-In . SVG Version: 6.00 Build 0)  -->
<svg version="1.1" id="Capa_1" xmlns="http://www.w3.org/2000/svg" xmlns:xlink="http://www.w3.org/1999/xlink" x="0px" y="0px"
	 viewBox="0 0 22.1 22.1" style="enable-background:new 0 0 22.1 22.1;" xml:space="preserve">
<style type="text/css">
	.st0{fill:#FFFFFF;}
	.st1{fill:url(#SVGID_1_);}
</style>
<g>
	<rect x="3" y="3.3" class="st0" width="16.6" height="16"/>
	<g id="_x32_069a460dcf28295e231f3111e037552">
		<radialGradient id="SVGID_1_" cx="11.062" cy="11.062" r="11.062" gradientUnits="userSpaceOnUse">
			<stop  offset="1.779265e-02" style="stop-color:#C6436A"/>
			<stop  offset="0.6751" style="stop-color:#8C2139"/>
			<stop  offset="1" style="stop-color:#751325"/>
		</radialGradient>
		<path class="st1" d="M18.4,0H3.7C1.7,0,0,1.7,0,3.7v14.7c0,2,1.7,3.7,3.7,3.7h14.7c2,0,3.7-1.7,3.7-3.7V3.7
			C22.1,1.7,20.5,0,18.4,0z M10.6,11.3c-0.8,0.8-2,1.1-3.3,1.1c-0.4,0-0.7,0-0.9-0.1v4H4.4V5.9c0.7-0.1,1.6-0.2,2.9-0.2
			c1.4,0,2.4,0.3,3.1,0.9c0.6,0.5,1,1.3,1,2.3C11.5,9.9,11.2,10.7,10.6,11.3z M14.6,16.5c-0.9,0-1.8-0.2-2.3-0.5l0.4-1.4
			c0.4,0.3,1.3,0.5,2,0.5c0.8,0,1.2-0.3,1.2-0.8c0-0.5-0.3-0.8-1.3-1.1c-1.5-0.5-2.1-1.3-2.1-2.2c0-1.3,1.1-2.4,2.9-2.4
			c0.8,0,1.6,0.2,2,0.5L17,10.3c-0.3-0.2-0.9-0.4-1.6-0.4c-0.7,0-1.1,0.3-1.1,0.8c0,0.5,0.4,0.7,1.3,1.1c1.4,0.5,2,1.2,2,2.3
			C17.7,15.5,16.6,16.5,14.6,16.5z M9.6,8.9c0,1.2-0.9,1.9-2.3,1.9c-0.4,0-0.7,0-0.9-0.1V7.2c0.2,0,0.6-0.1,1.1-0.1
			C8.8,7.1,9.6,7.8,9.6,8.9z"/>
	</g>
</g>
</svg>
