<?xml version="1.0" encoding="utf-8"?>
<!-- Generator: Adobe Illustrator 25.2.1, SVG Export Plug-In . SVG Version: 6.00 Build 0)  -->
<svg version="1.1" id="Capa_1" xmlns="http://www.w3.org/2000/svg" xmlns:xlink="http://www.w3.org/1999/xlink" x="0px" y="0px"
	 viewBox="0 0 793.7 793.7" style="enable-background:new 0 0 793.7 793.7;" xml:space="preserve">
<style type="text/css">
	.st0{fill:#FFFFFF;}
	.st1{fill:#260C4F;}
	.st2{fill:none;stroke:#FFFFFF;stroke-width:25;stroke-linecap:round;stroke-linejoin:round;stroke-miterlimit:133.3333;}
</style>
<rect x="103.62" y="948.16" class="st0" width="597.56" height="575.66"/>
<rect x="988.62" y="99.45" class="st0" width="597.56" height="575.66"/>
<rect x="95.7" y="79.97" class="st0" width="597.56" height="575.66"/>
<rect x="1867.79" y="109.02" class="st0" width="597.56" height="575.66"/>
<path class="st1" d="M347.85,359.76c-3.33-10.27-6.33-20.2-9.67-30.47c-3.33-10.27-6.33-19.87-9-29.47
	c-2.67-9.27-5-17.88-7.33-25.83h-0.67c-3,14.24-6.67,28.48-11.33,42.72c-5,15.9-10,32.45-15.33,49.01
	c-4.67,16.89-9.67,32.45-14.67,46.36h84.67c-2-6.99-4.67-15.23-7.67-23.88C353.85,379.3,350.85,369.7,347.85,359.76L347.85,359.76z
	 M653.15,0h-512.6C62.83,0,0,64.45,0,144.16v505.39C0,729.26,62.83,793.7,140.55,793.7h512.6c77.72,0,140.55-64.45,140.55-144.16
	V144.16C793.7,64.45,730.87,0,653.15,0z M486.85,561.76h-69.7c-2.3,0.33-4.63-1.32-5.3-3.64l-27.33-78.81h-124l-25.33,77.82
	c-0.67,2.98-3.33,4.97-6.33,4.67h-62.67c-3.67,0-4.67-2.02-3.67-5.96l107.33-307.01c1-3.31,2-6.95,3.33-10.93
	c1.33-6.95,2-14.24,2-21.52c-0.33-1.66,1-3.31,2.67-3.64h86.33c2.67,0,4,0.99,4.33,2.65l121.67,341.09
	C491.18,560.08,490.18,561.76,486.85,561.76L486.85,561.76z M600.18,556.8c0,3.64-1.3,5.3-4.3,5.3h-65.37c-3.33,0-5-2.02-5-5.3
	V301.81c0-3.31,1.37-4.64,4.37-4.64h66c3,0,4.3,1.66,4.3,4.64V556.8z M593.22,257.77c-7.7,7.95-19.03,12.25-30.37,11.59
	c-11,0.33-21.67-3.97-29.7-11.59c-7.67-8.28-11.67-19.21-11.33-30.47c-0.33-11.26,4-21.86,11.97-29.47
	c8.07-7.62,18.73-11.59,29.73-11.59c13.03,0,22.97,3.97,30.33,11.59c7.33,7.95,11.33,18.54,11,29.47
	C605.18,238.56,601.18,249.49,593.22,257.77L593.22,257.77z"/>
<g id="_x32_069a460dcf28295e231f3111e035a9d">
	<path class="st1" d="M1416.92,417c1.14,5.65,1.7,12.44,1.7,18.1v41.29c0,7.36-0.56,14.14-2.26,20.36
		c-6.78,29.98-31.67,49.21-59.95,49.21c-44.11,0-69-36.76-69-87.1c0-51.47,24.89-91.06,69.57-91.06
		C1388.64,367.8,1410.7,389.86,1416.92,417z M1688.33,131.91V664.2c0,73.19-59.88,133.07-133.07,133.07h-532.29
		c-73.19,0-133.07-59.88-133.07-133.07V131.91c0-73.19,59.88-133.07,133.07-133.07h532.29
		C1628.44-1.16,1688.33,58.72,1688.33,131.91z M1157.33,214.52h-69.57v381.22h69.57V214.52z M1490.46,595.74
		c-1.14-18.67-2.27-49.21-2.27-77.48v-324.1h-69.57v156.11h-1.13c-12.44-20.36-39.59-36.2-77.48-36.2
		c-66.18,0-123.87,54.86-123.3,147.06c0,84.84,52.04,140.83,117.64,140.83c40.15,0,73.53-19.23,89.93-49.77h1.13l2.83,43.55
		L1490.46,595.74L1490.46,595.74z"/>
</g>
<g id="_x32_069a460dcf28295e231f3111e03674e">
	<path class="st1" d="M2421.67,12.86h-532.29c-73.19,0-133.07,59.88-133.07,133.07v532.29c0,73.19,59.88,133.07,133.07,133.07
		h532.29c73.19,0,133.07-59.88,133.07-133.07V145.94C2554.74,72.75,2494.86,12.86,2421.67,12.86z M2166.57,602.69h-226.24V221.47
		h69.57v322.96h156.67V602.69z M2370.73,388.33c-5.66-1.13-11.88-2.26-20.36-2.26c-33.37,0-56,21.49-62.22,52.6
		c-1.13,6.22-2.26,13.57-2.26,21.49v142.53h-69.56V416.04c0-37.33-0.57-63.91-2.26-88.8h60.52l2.26,52.6h2.26
		c13.57-39.02,45.81-58.82,75.22-58.82c6.79,0,10.75,0.57,16.41,1.7L2370.73,388.33L2370.73,388.33z"/>
</g>
<g id="_x32_069a460dcf28295e231f3111e037552">
	<path class="st1" d="M660.63,827.54H128.34c-73.19,0-133.07,59.88-133.07,133.07v532.29c0,73.19,59.88,133.07,133.07,133.07h532.29
		c73.19,0,133.07-59.88,133.07-133.07V960.61C793.7,887.42,733.82,827.54,660.63,827.54z M377.81,1233.82
		c-27.71,27.71-71.27,40.73-120.47,40.73c-13.01,0-24.89-0.57-33.94-2.27v143.66h-69v-376.12c24.89-4.52,59.39-7.92,106.33-7.92
		c50.91,0,88.24,10.75,112.56,31.11c22.62,18.67,37.33,48.64,37.33,84.28C410.61,1183.49,399.3,1213.46,377.81,1233.82z
		 M522.58,1421.61c-33.37,0-63.35-7.92-83.71-19.23l13.57-50.34c15.84,9.62,45.82,19.8,70.7,19.8c30.54,0,44.12-12.44,44.12-30.55
		c0-18.66-11.31-28.28-45.25-40.16c-53.74-18.67-76.35-48.08-75.79-80.32c0-48.64,40.16-86.54,104.07-86.54
		c30.55,0,57.13,7.92,72.96,16.4l-13.57,49.21c-11.88-6.78-33.94-15.84-58.26-15.84c-24.89,0-38.46,11.88-38.46,28.84
		c0,17.54,13.01,26.02,48.08,38.47c49.77,18.1,72.96,43.55,73.53,84.28C634.56,1385.41,595.54,1421.61,522.58,1421.61z
		 M341.04,1150.11c0,44.68-31.68,70.14-83.71,70.14c-14.14,0-25.45-0.57-33.94-2.83v-128.96c7.36-1.7,20.93-3.39,40.16-3.39
		C311.64,1085.07,341.04,1107.7,341.04,1150.11z"/>
</g>
<path class="st1" d="M1547.31,855.72h-532.29c-73.19,0-133.07,59.88-133.07,133.07v532.29c0,73.19,59.88,133.07,133.07,133.07
	h532.29c73.19,0,133.07-59.88,133.07-133.07V988.79C1680.38,915.6,1620.5,855.72,1547.31,855.72z"/>
<path class="st2" d="M1289.11,1010.36h-81.53c-45.03,0-81.53,36.5-81.53,81.53c0,45.03,36.5,81.53,81.53,81.53 M1289.11,1010.36
	v163.05 M1289.11,1010.36h81.53c45.03,0,81.53,36.5,81.53,81.53c0,45.03-36.5,81.53-81.53,81.53 M1289.11,1173.41h-81.53
	 M1289.11,1173.41v163.05 M1289.11,1173.41h81.53 M1207.58,1173.41c-45.03,0-81.53,36.5-81.53,81.53c0,45.03,36.5,81.53,81.53,81.53
	 M1289.11,1336.46h-81.53 M1289.11,1336.46v81.53c0,45.03-36.5,81.53-81.53,81.53c-45.03,0-81.53-36.5-81.53-81.53
	s36.5-81.53,81.53-81.53 M1370.63,1173.41c45.03,0,81.53,36.5,81.53,81.53c0,45.03-36.5,81.53-81.53,81.53
	c-45.03,0-81.53-36.5-81.53-81.53C1289.11,1209.91,1325.61,1173.41,1370.63,1173.41z"/>
</svg>
