<?xml version="1.0" encoding="utf-8"?>
<!-- Generator: Adobe Illustrator 25.2.1, SVG Export Plug-In . SVG Version: 6.00 Build 0)  -->
<svg version="1.1" id="Capa_1" xmlns="http://www.w3.org/2000/svg" xmlns:xlink="http://www.w3.org/1999/xlink" x="0px" y="0px"
	 viewBox="0 0 793.7 793.7" style="enable-background:new 0 0 793.7 793.7;" xml:space="preserve">
<style type="text/css">
	.st0{fill:#FFFFFF;}
	.st1{fill:#260C4F;}
</style>
<rect x="109.11" y="93.79" class="st0" width="597.56" height="575.66"/>
<g id="_x32_069a460dcf28295e231f3111e03674e">
	<path class="st1" d="M662.99-2.37H130.7C57.51-2.37-2.37,57.51-2.37,130.7V663c0,73.19,59.88,133.07,133.07,133.07H663
		c73.19,0,133.07-59.88,133.07-133.07V130.7C796.07,57.51,736.19-2.37,662.99-2.37z M407.89,587.46H181.65V206.24h69.57V529.2
		h156.67V587.46z M612.05,373.09c-5.66-1.13-11.88-2.26-20.36-2.26c-33.37,0-56,21.49-62.22,52.6c-1.13,6.22-2.26,13.57-2.26,21.49
		v142.53h-69.56V400.81c0-37.33-0.57-63.91-2.26-88.8h60.52l2.26,52.6h2.26c13.58-39.02,45.81-58.82,75.23-58.82
		c6.79,0,10.75,0.57,16.41,1.7L612.05,373.09L612.05,373.09z"/>
</g>
</svg>
