<?xml version="1.0" encoding="utf-8"?>
<!-- Generator: Adobe Illustrator 25.2.1, SVG Export Plug-In . SVG Version: 6.00 Build 0)  -->
<svg version="1.1" id="Capa_1" xmlns="http://www.w3.org/2000/svg" xmlns:xlink="http://www.w3.org/1999/xlink" x="0px" y="0px"
	 viewBox="0 0 22 22" style="enable-background:new 0 0 22 22;" xml:space="preserve">
<style type="text/css">
	.st0{fill:#FFFFFF;}
	.st1{fill:url(#SVGID_1_);}
</style>
<g>
	<rect x="2.7" y="2.2" class="st0" width="16.6" height="16"/>
	<radialGradient id="SVGID_1_" cx="10.9964" cy="10.9964" r="10.9964" gradientUnits="userSpaceOnUse">
		<stop  offset="1.779265e-02" style="stop-color:#C6436A"/>
		<stop  offset="0.6751" style="stop-color:#8C2139"/>
		<stop  offset="1" style="stop-color:#751325"/>
	</radialGradient>
	<path class="st1" d="M9.6,10C9.5,9.7,9.5,9.4,9.4,9.1S9.2,8.6,9.1,8.3C9,8.1,9,7.8,8.9,7.6h0C8.8,8,8.7,8.4,8.6,8.8
		c-0.1,0.4-0.3,0.9-0.4,1.4C8,10.6,7.9,11,7.8,11.4h2.3C10,11.2,10,11,9.9,10.8C9.8,10.5,9.7,10.2,9.6,10L9.6,10z M18.1,0H3.9
		C1.7,0,0,1.8,0,4v14c0,2.2,1.7,4,3.9,4h14.2c2.2,0,3.9-1.8,3.9-4V4C22,1.8,20.3,0,18.1,0z M13.5,15.6h-1.9c-0.1,0-0.1,0-0.1-0.1
		l-0.8-2.2H7.2l-0.7,2.2c0,0.1-0.1,0.1-0.2,0.1H4.6c-0.1,0-0.1-0.1-0.1-0.2l3-8.5c0-0.1,0.1-0.2,0.1-0.3c0-0.2,0.1-0.4,0.1-0.6
		c0,0,0-0.1,0.1-0.1h2.4c0.1,0,0.1,0,0.1,0.1l3.4,9.5C13.6,15.5,13.6,15.6,13.5,15.6L13.5,15.6z M16.6,15.4c0,0.1,0,0.1-0.1,0.1
		h-1.8c-0.1,0-0.1-0.1-0.1-0.1V8.4c0-0.1,0-0.1,0.1-0.1h1.8c0.1,0,0.1,0,0.1,0.1V15.4z M16.4,7.1c-0.2,0.2-0.5,0.3-0.8,0.3
		c-0.3,0-0.6-0.1-0.8-0.3c-0.2-0.2-0.3-0.5-0.3-0.8c0-0.3,0.1-0.6,0.3-0.8c0.2-0.2,0.5-0.3,0.8-0.3c0.4,0,0.6,0.1,0.8,0.3
		c0.2,0.2,0.3,0.5,0.3,0.8C16.8,6.6,16.7,6.9,16.4,7.1L16.4,7.1z"/>
</g>
</svg>
