<?xml version="1.0" encoding="utf-8"?>
<!-- Generator: Adobe Illustrator 25.2.1, SVG Export Plug-In . SVG Version: 6.00 Build 0)  -->
<svg version="1.1" id="Capa_1" xmlns="http://www.w3.org/2000/svg" xmlns:xlink="http://www.w3.org/1999/xlink" x="0px" y="0px"
	 viewBox="0 0 22.1 22.1" style="enable-background:new 0 0 22.1 22.1;" xml:space="preserve">
<style type="text/css">
	.st0{fill:url(#SVGID_1_);}
	.st1{fill:none;stroke:#FFFFFF;stroke-linecap:round;stroke-linejoin:round;stroke-miterlimit:133.3333;}
</style>
<g>
	<radialGradient id="SVGID_1_" cx="11.062" cy="11.062" r="11.062" gradientUnits="userSpaceOnUse">
		<stop  offset="1.779265e-02" style="stop-color:#C6436A"/>
		<stop  offset="0.6751" style="stop-color:#8C2139"/>
		<stop  offset="1" style="stop-color:#751325"/>
	</radialGradient>
	<path class="st0" d="M18.4,0H3.7C1.7,0,0,1.7,0,3.7v14.7c0,2,1.7,3.7,3.7,3.7h14.7c2,0,3.7-1.7,3.7-3.7V3.7C22.1,1.7,20.5,0,18.4,0
		z"/>
	<path class="st1" d="M11.3,4.3H9c-1.2,0-2.3,1-2.3,2.3s1,2.3,2.3,2.3 M11.3,4.3v4.5 M11.3,4.3h2.3c1.2,0,2.3,1,2.3,2.3
		s-1,2.3-2.3,2.3 M11.3,8.8H9 M11.3,8.8v4.5 M11.3,8.8h2.3 M9,8.8c-1.2,0-2.3,1-2.3,2.3s1,2.3,2.3,2.3 M11.3,13.3H9 M11.3,13.3v2.3
		c0,1.2-1,2.3-2.3,2.3s-2.3-1-2.3-2.3s1-2.3,2.3-2.3 M13.5,8.8c1.2,0,2.3,1,2.3,2.3s-1,2.3-2.3,2.3s-2.3-1-2.3-2.3
		S12.3,8.8,13.5,8.8z"/>
</g>
</svg>
