<?xml version="1.0" encoding="utf-8"?>
<!-- Generator: Adobe Illustrator 25.2.1, SVG Export Plug-In . SVG Version: 6.00 Build 0)  -->
<svg version="1.1" id="Capa_1" xmlns="http://www.w3.org/2000/svg" xmlns:xlink="http://www.w3.org/1999/xlink" x="0px" y="0px"
	 viewBox="0 0 22.1 22.1" style="enable-background:new 0 0 22.1 22.1;" xml:space="preserve">
<style type="text/css">
	.st0{fill:#FFFFFF;}
	.st1{fill:url(#SVGID_1_);}
</style>
<g>
	<rect x="2.7" y="2.8" class="st0" width="16.6" height="16"/>
	<g id="_x32_069a460dcf28295e231f3111e035a9d">
		<radialGradient id="SVGID_1_" cx="11.062" cy="11.062" r="11.062" gradientUnits="userSpaceOnUse">
			<stop  offset="1.779265e-02" style="stop-color:#C6436A"/>
			<stop  offset="0.6751" style="stop-color:#8C2139"/>
			<stop  offset="1" style="stop-color:#751325"/>
		</radialGradient>
		<path class="st1" d="M14.6,11.6c0,0.2,0,0.3,0,0.5v1.1c0,0.2,0,0.4-0.1,0.6c-0.2,0.8-0.9,1.4-1.7,1.4c-1.2,0-1.9-1-1.9-2.4
			c0-1.4,0.7-2.5,1.9-2.5C13.8,10.2,14.4,10.8,14.6,11.6z M22.1,3.7v14.7c0,2-1.7,3.7-3.7,3.7H3.7c-2,0-3.7-1.7-3.7-3.7V3.7
			C0,1.7,1.7,0,3.7,0h14.7C20.5,0,22.1,1.7,22.1,3.7z M7.4,6H5.5v10.6h1.9V6z M16.6,16.5c0-0.5-0.1-1.4-0.1-2.1v-9h-1.9v4.3h0
			c-0.3-0.6-1.1-1-2.1-1c-1.8,0-3.4,1.5-3.4,4.1c0,2.4,1.4,3.9,3.3,3.9c1.1,0,2-0.5,2.5-1.4h0l0.1,1.2L16.6,16.5L16.6,16.5z"/>
	</g>
</g>
</svg>
