<?xml version="1.0" encoding="utf-8"?>
<!-- Generator: Adobe Illustrator 25.2.1, SVG Export Plug-In . SVG Version: 6.00 Build 0)  -->
<svg version="1.1" id="Capa_1" xmlns="http://www.w3.org/2000/svg" xmlns:xlink="http://www.w3.org/1999/xlink" x="0px" y="0px"
	 viewBox="0 0 24.18 24.18" style="enable-background:new 0 0 24.18 24.18;" xml:space="preserve">
<style type="text/css">
	.st0{fill:url(#SVGID_1_);}
	.st1{fill:#FFFFFF;}
	.st2{fill:url(#SVGID_2_);}
	.st3{fill:url(#SVGID_3_);}
	.st4{fill:url(#SVGID_4_);}
</style>
<g>
	<radialGradient id="SVGID_1_" cx="870.3683" cy="493.9939" r="12.0912" gradientUnits="userSpaceOnUse">
		<stop  offset="0.0178" style="stop-color:#C6436A"/>
		<stop  offset="0.6779" style="stop-color:#8A1E35"/>
		<stop  offset="1" style="stop-color:#751325"/>
	</radialGradient>
	<path class="st0" d="M869.48,481.9h1.77c6.16,0,11.21,5.04,11.21,11.21v1.77c0,6.16-5.04,11.21-11.21,11.21h-1.77
		c-6.16,0-11.21-5.04-11.21-11.21v-1.77C858.28,486.95,863.32,481.9,869.48,481.9z"/>
	<path class="st1" d="M872.24,489c0.65,0,1.76,0.01,1.76,0.01v-2.22c0,0-0.77-0.02-1.78,0c-1.01,0.02-3.49,0.1-3.49,3.02v1.88h-1.92
		v2.3h1.92v7.2h2.75v-7.2h2.25l0.27-2.3h-2.52v-1.88C871.48,489.81,871.59,489,872.24,489z"/>
</g>
<g>
	<radialGradient id="SVGID_2_" cx="721.98" cy="493.9939" r="12.0913" gradientUnits="userSpaceOnUse">
		<stop  offset="0.0178" style="stop-color:#C6436A"/>
		<stop  offset="0.6779" style="stop-color:#8A1E35"/>
		<stop  offset="1" style="stop-color:#751325"/>
	</radialGradient>
	<path class="st2" d="M721.1,481.9h1.77c6.16,0,11.21,5.04,11.21,11.21v1.77c0,6.16-5.04,11.21-11.21,11.21h-1.77
		c-6.16,0-11.21-5.04-11.21-11.21v-1.77C709.89,486.95,714.93,481.9,721.1,481.9z"/>
	<g>
		<g>
			<path class="st1" d="M715.16,491.32c0.02-0.9,0.16-1.77,0.66-2.54c0.47-0.71,1.12-1.2,1.93-1.47c0.8-0.27,1.62-0.27,2.44-0.27
				c1.58,0,3.16,0,4.74,0.02c0.89,0.01,1.74,0.2,2.49,0.7c0.85,0.56,1.36,1.37,1.53,2.36c0.1,0.59,0.15,1.19,0.15,1.79
				c0.01,1.7-0.01,3.4-0.04,5.1c-0.01,0.75-0.18,1.47-0.57,2.11c-0.47,0.78-1.15,1.29-2.02,1.57c-0.79,0.26-1.6,0.26-2.42,0.27
				c-1.55,0-3.1,0-4.65-0.01c-0.81-0.01-1.6-0.14-2.32-0.55c-0.84-0.47-1.4-1.17-1.69-2.1c-0.19-0.62-0.23-1.26-0.26-1.91
				C715.14,496.27,715.13,492.63,715.16,491.32z M716.51,497.39c0.07,0.67,0.35,1.26,0.92,1.7c0.55,0.42,1.19,0.55,1.85,0.57
				c2.09,0.05,4.18,0.13,6.26-0.07c0.47-0.04,0.9-0.21,1.28-0.49c0.72-0.54,0.97-1.32,0.99-2.16c0.04-1.56,0.03-3.13,0.03-4.7
				c0-0.56-0.03-1.12-0.09-1.68c-0.07-0.61-0.31-1.14-0.78-1.56c-0.52-0.46-1.14-0.64-1.81-0.66c-1.7-0.03-3.4-0.06-5.1-0.05
				c-0.62,0-1.25,0.01-1.87,0.21c-1.04,0.33-1.6,1.12-1.68,2.09C716.41,491.83,716.43,496.61,716.51,497.39z"/>
			<path class="st1" d="M722.14,490.42c1.94-0.01,3.59,1.58,3.59,3.6c-0.01,2.01-1.68,3.58-3.62,3.57
				c-1.98-0.02-3.61-1.63-3.58-3.62C718.55,491.97,720.16,490.39,722.14,490.42z M724.45,494.03c0.04-1.23-1.02-2.33-2.31-2.34
				c-1.27,0-2.32,1.04-2.32,2.28c0,1.31,1.03,2.34,2.34,2.34C723.4,496.31,724.45,495.27,724.45,494.03z"/>
			<path class="st1" d="M725.86,491.11c-0.47,0.04-0.84-0.38-0.85-0.82c-0.01-0.45,0.4-0.86,0.86-0.85c0.47,0.01,0.87,0.4,0.85,0.86
				C726.7,490.72,726.36,491.15,725.86,491.11z"/>
		</g>
	</g>
</g>
<g>
	<radialGradient id="SVGID_3_" cx="1038.7472" cy="493.9939" r="12.0913" gradientUnits="userSpaceOnUse">
		<stop  offset="0.0178" style="stop-color:#C6436A"/>
		<stop  offset="0.6779" style="stop-color:#8A1E35"/>
		<stop  offset="1" style="stop-color:#751325"/>
	</radialGradient>
	<path class="st3" d="M1037.86,481.9h1.77c6.16,0,11.21,5.04,11.21,11.21v1.77c0,6.16-5.04,11.21-11.21,11.21h-1.77
		c-6.16,0-11.21-5.04-11.21-11.21v-1.77C1026.66,486.95,1031.7,481.9,1037.86,481.9z"/>
	<g>
		<path class="st1" d="M1037.34,493.62c0.4-0.19,0.7-0.44,0.91-0.73c0.2-0.3,0.3-0.67,0.3-1.12c0-0.41-0.07-0.76-0.2-1.04
			c-0.14-0.28-0.33-0.51-0.58-0.68c-0.25-0.17-0.55-0.29-0.9-0.37c-0.35-0.08-0.74-0.11-1.16-0.11h-4.2v8.9h4.31
			c0.4,0,0.79-0.05,1.16-0.15c0.38-0.1,0.72-0.25,1.01-0.46c0.29-0.21,0.53-0.48,0.7-0.81c0.17-0.33,0.26-0.72,0.26-1.17
			c0-0.56-0.13-1.03-0.4-1.43C1038.29,494.06,1037.89,493.78,1037.34,493.62z M1033.47,491.08h1.83c0.17,0,0.34,0.01,0.5,0.04
			c0.16,0.03,0.31,0.08,0.43,0.16c0.13,0.07,0.23,0.18,0.3,0.31c0.07,0.13,0.11,0.3,0.11,0.51c0,0.37-0.11,0.64-0.33,0.81
			c-0.23,0.17-0.52,0.25-0.86,0.25h-1.98V491.08z M1036.89,496.35c-0.08,0.15-0.19,0.27-0.32,0.36c-0.13,0.09-0.29,0.15-0.46,0.19
			c-0.17,0.04-0.36,0.06-0.55,0.06h-2.09v-2.45h2.13c0.42,0,0.76,0.1,1.02,0.29c0.26,0.2,0.39,0.52,0.39,0.98
			C1037.01,496.01,1036.97,496.2,1036.89,496.35z"/>
		<path class="st1" d="M1045.84,494.23c-0.12-0.46-0.3-0.87-0.57-1.22c-0.26-0.36-0.6-0.64-1-0.85c-0.41-0.21-0.89-0.32-1.43-0.32
			c-0.49,0-0.94,0.09-1.34,0.26c-0.4,0.18-0.75,0.41-1.04,0.72c-0.29,0.3-0.51,0.66-0.67,1.08c-0.16,0.42-0.24,0.87-0.24,1.35
			c0,0.5,0.08,0.96,0.23,1.37c0.16,0.42,0.37,0.77,0.65,1.07c0.29,0.3,0.63,0.53,1.04,0.69c0.41,0.16,0.87,0.24,1.37,0.24
			c0.73,0,1.35-0.17,1.87-0.5c0.52-0.33,0.9-0.89,1.15-1.66h-1.56c-0.06,0.2-0.22,0.39-0.47,0.57c-0.26,0.18-0.57,0.27-0.92,0.27
			c-0.5,0-0.88-0.13-1.14-0.39c-0.27-0.26-0.44-0.74-0.44-1.25h4.65C1046,495.17,1045.96,494.69,1045.84,494.23z M1041.32,494.55
			c0.01-0.13,0.04-0.27,0.08-0.42c0.05-0.16,0.12-0.31,0.24-0.45c0.11-0.14,0.27-0.26,0.45-0.36c0.19-0.1,0.42-0.14,0.7-0.14
			c0.43,0,0.79,0.13,1,0.36c0.21,0.23,0.37,0.57,0.41,1.02H1041.32z"/>
		<rect x="1040.96" y="490.16" class="st1" width="3.61" height="0.88"/>
	</g>
</g>
<g>
	<radialGradient id="SVGID_4_" cx="12.0913" cy="12.0912" r="12.0913" gradientUnits="userSpaceOnUse">
		<stop  offset="0.0178" style="stop-color:#C6436A"/>
		<stop  offset="0.6779" style="stop-color:#8A1E35"/>
		<stop  offset="1" style="stop-color:#751325"/>
	</radialGradient>
	<path class="st4" d="M7.58,0h9.02c4.17,0,7.58,3.41,7.58,7.58v9.02c0,4.17-3.41,7.58-7.58,7.58H7.58C3.41,24.18,0,20.77,0,16.6
		V7.58C0,3.41,3.41,0,7.58,0z"/>
	<path class="st1" d="M17.37,6.6H6.95c-0.88,0-1.59,0.71-1.59,1.59v7.8c0,0.88,0.71,1.59,1.59,1.59h10.42
		c0.88,0,1.59-0.71,1.59-1.59v-7.8C18.96,7.32,18.25,6.6,17.37,6.6z M16.31,8.16l-4.15,2.97L8.14,8.16H16.31z M17.37,16.03H6.95
		c-0.02,0-0.04-0.02-0.04-0.04V9.18l5.24,3.87l5.25-3.77v6.7C17.4,16.01,17.39,16.03,17.37,16.03z"/>
</g>
</svg>
