<?xml version="1.0" encoding="utf-8"?>
<!-- Generator: Adobe Illustrator 25.2.1, SVG Export Plug-In . SVG Version: 6.00 Build 0)  -->
<svg version="1.1" id="Capa_1" xmlns="http://www.w3.org/2000/svg" xmlns:xlink="http://www.w3.org/1999/xlink" x="0px" y="0px"
	 viewBox="0 0 332.6 57.3" style="enable-background:new 0 0 332.6 57.3;" xml:space="preserve">
<style type="text/css">
	.st0{clip-path:url(#SVGID_2_);fill:url(#SVGID_3_);}
</style>
<g>
	<defs>
		<path id="SVGID_1_" d="M50.3,28.5c0,15.7-11.3,28.5-25.2,28.5S0,44.2,0,28.5S11.3,0,25.2,0S50.3,12.7,50.3,28.5z M25.2,3.6
			c-2,0-3.6,11.7-3.6,24.8c0,13.2,1.6,24.8,3.6,24.8s3.6-11.7,3.6-24.8C28.7,15.3,27.1,3.6,25.2,3.6z M101,9
			C87.8,9.9,80.6,20.1,80.6,30.5v16.4c0,5.8,3.5,6.5,5.6,6.5c0.9,0,1.6,0.7,1.6,1.6c0,0.9-0.7,1.6-1.6,1.6H54.3
			c-0.9,0-1.6-0.7-1.6-1.6c0-0.9,0.7-1.6,1.6-1.6c3.2,0,5.7-1,5.7-7V23.3c0-5.9-2.4-7-5.7-7c-0.9,0-1.6-0.7-1.6-1.6
			c0-0.9,0.7-1.6,1.6-1.6h0.1c9.5,0,15.6,0.8,19.4,2.7c2.9,1.4,4.7,3.3,5.7,5.8C83.1,13.8,88.9,6.8,96.7,4
			C105.4,1.1,106.2,8.8,101,9z M156.7,41.7c0,9.9-3.7,15.6-15.1,15.6c-9.2,0-13.1-5.1-13.8-13c-0.2-2.4-0.2-14.7-0.2-17.2
			c0.1-4.3,0.3-10-4.1-10c-2.8,0-4.9,3.4-4.9,7.1c0,10.8,0,21.6,0,32.5H92.3c-0.9,0-1.6-0.7-1.6-1.6c0-0.9,0.7-1.6,1.6-1.6
			c3.2,0,5.7-1,5.7-7V23.3c0-5.9-2.4-7-5.7-7c-0.9,0-1.6-0.7-1.6-1.6c0-0.9,0.7-1.6,1.6-1.6h0.1c15.6,0,21.9,2.4,24.5,7.4
			c2.6-6.1,7.8-8.1,15.8-7.5c10.8,0.8,16.1,7,16.1,19.3c0,2.1,0,7.1,0,9.2c0,2.9-0.2,7.4,2.5,7.4c2.1,0,2.9-3,2.9-7.4
			C154.3,39.5,156.7,39.8,156.7,41.7z M206.5,43.4c-4.8,10.3-15,14.4-25,13.5c-2.9-0.2-5.7-0.9-8.2-1.9l0,0
			c-8.6-3.5-14.6-11.1-14.6-19.9c0-12.1,11.3-21.9,25.2-21.9c13.7,0,25.5,8.9,21.7,19.7c-2.1,5.9-10.1,10.2-19.1,9.3
			c-1.6-0.2-2.5-1.2-1.6-2.7c3.7-6.1,4.7-22.7-1-22.7c-4.7,0-7.3,17.2-2,26.2c4.5,7.8,16.1,5.9,22-0.5
			C205.9,40.1,207.3,41.7,206.5,43.4z M242.5,53.4c0.9,0,1.6,0.7,1.6,1.6c0,0.9-0.7,1.6-1.6,1.6h-31.9c-0.9,0-1.6-0.7-1.6-1.6
			c0-0.9,0.7-1.6,1.6-1.6c3.2,0,5.7-1,5.7-7V23.2c0-5.9-2.4-7-5.7-7c-0.9,0-1.6-0.7-1.6-1.6c0-0.9,0.7-1.6,1.6-1.6h0.1
			c14.6,0,21.8-4.3,23.5-10.7c0.5-2.1,2.6-1.7,2.6,0v44.5C236.9,52.7,240.4,53.4,242.5,53.4z M273.6,53.4c0.9,0,1.6,0.7,1.6,1.6
			c0,0.9-0.7,1.6-1.6,1.6c-4.1,0-8.2,0-12.3,0c-10.1,0-13.9-6-13.9-15c0-6.1,0-12.2,0-18.2c0-5.9-2.4-7-5.6-7
			c-0.9,0-1.6-0.7-1.6-1.6c0-0.9,0.7-1.6,1.6-1.6h0.1c14.6,0,21.8-4.4,23.5-10.7c0.5-2.1,2.6-1.7,2.6,0v44.4
			C268,52.7,271.5,53.4,273.6,53.4z M332.6,41c0,10.1-3.7,15.8-15.1,15.8c-6.8,0-10.7-2.8-12.6-7.5c-1.9,4.9-6.1,7.5-13.9,7.5
			c-18.9,0-19-27.4-1-29.9c6.9-1,14.8-0.8,15.7-6.7c0.4-2.8-1.4-5.4-6.7-5c-5.2,0.4-10.1,3.4-14.4,9.9c-2.3,3.5-8.4-0.5-2.6-5.5
			c7.8-6.7,20.4-8,29.7-5.2c10.9,3.3,12.5,10.3,12.5,19.5V41c0,2.9,0,7.6,3,7.6c2.1,0,3.1-3.1,3.1-7.5
			C330.2,38.8,332.6,39.1,332.6,41z M304.1,39.4c0-6.9-1.2-10.3-3.1-10.3c-4.9,0-4.5,19.5-0.3,19.5
			C303.1,48.6,304.1,45.1,304.1,39.4z"/>
	</defs>
	<clipPath id="SVGID_2_">
		<use xlink:href="#SVGID_1_"  style="overflow:visible;"/>
	</clipPath>
	
		<radialGradient id="SVGID_3_" cx="157.3018" cy="34.7316" r="196.0335" fx="157.6327" fy="55.5797" gradientTransform="matrix(1 0 0 0.1904 0 28.118)" gradientUnits="userSpaceOnUse">
		<stop  offset="1.779265e-02" style="stop-color:#C6436A"/>
		<stop  offset="0.6751" style="stop-color:#8C2139"/>
		<stop  offset="1" style="stop-color:#751325"/>
	</radialGradient>
	<rect x="-41" y="-11.6" class="st0" width="407.8" height="92.7"/>
</g>
</svg>
