<?xml version="1.0" encoding="utf-8"?>
<!-- Generator: Adobe Illustrator 25.2.1, SVG Export Plug-In . SVG Version: 6.00 Build 0)  -->
<svg version="1.1" id="Capa_1" xmlns="http://www.w3.org/2000/svg" xmlns:xlink="http://www.w3.org/1999/xlink" x="0px" y="0px"
	 viewBox="0 0 53.48 9.21" style="enable-background:new 0 0 53.48 9.21;" xml:space="preserve">
<style type="text/css">
	.st0{clip-path:url(#SVGID_2_);fill:url(#SVGID_3_);}
</style>
<g>
	<defs>
		<path id="SVGID_1_" d="M8.09,4.58c0,2.53-1.81,4.58-4.05,4.58S0,7.11,0,4.58S1.81,0,4.05,0S8.09,2.05,8.09,4.58z M4.05,0.58
			c-0.32,0-0.57,1.88-0.57,4c0,2.12,0.26,4,0.57,4s0.57-1.87,0.57-4C4.62,2.46,4.36,0.58,4.05,0.58z M16.24,1.45
			c-2.12,0.15-3.28,1.79-3.28,3.46v2.64c0,0.93,0.56,1.05,0.91,1.05c0.14,0,0.25,0.11,0.25,0.25c0,0.14-0.11,0.25-0.25,0.25H8.73
			c-0.14,0-0.25-0.11-0.25-0.25c0-0.14,0.11-0.25,0.25-0.25c0.52,0,0.91-0.17,0.91-1.12V3.75c0-0.96-0.39-1.12-0.91-1.12
			c-0.14,0-0.25-0.11-0.25-0.25c0-0.14,0.11-0.25,0.25-0.25h0.02c1.52,0,2.5,0.13,3.13,0.43c0.46,0.22,0.75,0.54,0.91,0.94
			c0.57-1.28,1.51-2.4,2.77-2.85C16.94,0.17,17.07,1.41,16.24,1.45z M25.19,6.7c0,1.59-0.6,2.51-2.44,2.51
			c-1.47,0-2.11-0.82-2.22-2.09c-0.03-0.38-0.03-2.37-0.03-2.77c0.01-0.69,0.05-1.6-0.67-1.61c-0.44,0-0.79,0.54-0.79,1.14
			c0,1.74,0,3.48,0,5.22h-4.22c-0.14,0-0.25-0.11-0.25-0.25c0-0.14,0.11-0.25,0.25-0.25c0.52,0,0.91-0.17,0.91-1.12V3.75
			c0-0.96-0.39-1.12-0.91-1.12c-0.14,0-0.25-0.11-0.25-0.25c0-0.14,0.11-0.25,0.25-0.25h0.02c2.5,0,3.53,0.39,3.94,1.2
			c0.41-0.99,1.25-1.31,2.54-1.21c1.74,0.13,2.59,1.13,2.59,3.1c0,0.34,0,1.15,0,1.49c0,0.46-0.03,1.2,0.41,1.2
			c0.34,0,0.47-0.49,0.47-1.18C24.81,6.35,25.19,6.4,25.19,6.7z M33.2,6.98c-0.78,1.66-2.41,2.32-4.03,2.17
			c-0.47-0.04-0.92-0.14-1.32-0.31l-0.01,0c-1.39-0.56-2.35-1.78-2.35-3.2c0-1.95,1.81-3.53,4.04-3.53c2.2,0,4.1,1.42,3.49,3.17
			c-0.33,0.95-1.62,1.63-3.08,1.49c-0.26-0.03-0.4-0.19-0.25-0.44c0.59-0.99,0.76-3.66-0.16-3.66c-0.75,0-1.17,2.76-0.32,4.22
			c0.73,1.25,2.58,0.96,3.53-0.08C33.11,6.44,33.34,6.71,33.2,6.98z M39,8.59c0.14,0,0.25,0.11,0.25,0.25
			c0,0.14-0.11,0.25-0.25,0.25h-5.13c-0.14,0-0.25-0.11-0.25-0.25c0-0.14,0.11-0.25,0.25-0.25c0.52,0,0.91-0.17,0.91-1.12V3.73
			c0-0.96-0.39-1.12-0.91-1.12c-0.14,0-0.25-0.11-0.25-0.25c0-0.14,0.11-0.25,0.25-0.25h0.02c2.35,0,3.51-0.7,3.78-1.72
			c0.08-0.34,0.42-0.28,0.42,0v7.16C38.09,8.48,38.65,8.59,39,8.59z M43.99,8.59c0.14,0,0.25,0.11,0.25,0.25
			c0,0.14-0.11,0.25-0.25,0.25c-0.66,0-1.32,0-1.98,0c-1.63,0-2.24-0.96-2.24-2.42c0-0.98,0-1.96,0-2.93c0-0.96-0.39-1.12-0.91-1.12
			c-0.14,0-0.25-0.11-0.25-0.25c0-0.14,0.11-0.25,0.25-0.25h0.02c2.35,0,3.5-0.7,3.78-1.72c0.08-0.34,0.42-0.28,0.42,0v7.14
			C43.08,8.48,43.65,8.59,43.99,8.59z M53.48,6.6c0,1.62-0.6,2.55-2.43,2.55c-1.09,0-1.72-0.45-2.02-1.21
			c-0.3,0.78-0.98,1.21-2.23,1.21c-3.03,0-3.05-4.41-0.16-4.81c1.11-0.16,2.38-0.13,2.52-1.08c0.07-0.45-0.23-0.87-1.07-0.8
			c-0.83,0.07-1.62,0.55-2.32,1.59c-0.37,0.57-1.36-0.08-0.42-0.88c1.26-1.07,3.28-1.29,4.77-0.84c1.75,0.52,2.02,1.66,2.02,3.13
			V6.6c0,0.47-0.01,1.22,0.48,1.22c0.33,0,0.5-0.49,0.5-1.2C53.1,6.24,53.48,6.29,53.48,6.6z M48.9,6.34c0-1.11-0.2-1.66-0.5-1.66
			c-0.79,0-0.72,3.13-0.05,3.13C48.74,7.81,48.9,7.25,48.9,6.34z"/>
	</defs>
	<clipPath id="SVGID_2_">
		<use xlink:href="#SVGID_1_"  style="overflow:visible;"/>
	</clipPath>
	
		<radialGradient id="SVGID_3_" cx="26.1962" cy="5.5846" r="32.5137" fx="26.251" fy="9.0424" gradientTransform="matrix(1 0 0 0.1904 0 4.5212)" gradientUnits="userSpaceOnUse">
		<stop  offset="0.058" style="stop-color:#45167C"/>
		<stop  offset="0.0849" style="stop-color:#431579"/>
		<stop  offset="0.7043" style="stop-color:#210A45"/>
		<stop  offset="1" style="stop-color:#160735"/>
	</radialGradient>
	<rect x="-6.59" y="-1.87" class="st0" width="65.58" height="14.91"/>
</g>
</svg>
